<svg width="118" height="31" viewBox="0 0 118 31" fill="none" xmlns="http://www.w3.org/2000/svg">
<g clip-path="url(#clip0_283_976)">
<mask id="mask0_283_976" style="mask-type:luminance" maskUnits="userSpaceOnUse" x="-32" y="-28" width="153" height="87">
<path d="M-31.1523 -27.2012H120.809V58.2009H-31.1523V-27.2012Z" fill="white"/>
</mask>
<g mask="url(#mask0_283_976)">
<mask id="mask1_283_976" style="mask-type:luminance" maskUnits="userSpaceOnUse" x="0" y="0" width="31" height="31">
<path d="M15.5 31.0001C24.0605 31.0001 31.0001 24.0605 31.0001 15.5C31.0001 6.9396 24.0605 0 15.5 0C6.9396 0 0 6.9396 0 15.5C0 24.0605 6.9396 31.0001 15.5 31.0001Z" fill="white"/>
</mask>
<g mask="url(#mask1_283_976)">
<path d="M-0.761719 -0.759766H31.7579V31.7599H-0.761719V-0.759766Z" fill="#E5E5E4"/>
</g>
<mask id="mask2_283_976" style="mask-type:luminance" maskUnits="userSpaceOnUse" x="0" y="0" width="31" height="31">
<path d="M15.5008 30.6959C23.8934 30.6959 30.6969 23.8924 30.6969 15.4998C30.6969 7.10724 23.8934 0.303711 15.5008 0.303711C7.10822 0.303711 0.304688 7.10724 0.304688 15.4998C0.304688 23.8924 7.10822 30.6959 15.5008 30.6959Z" fill="white"/>
</mask>
<g mask="url(#mask2_283_976)">
<path d="M-0.457031 -0.456055H31.4548V31.4558H-0.457031V-0.456055Z" fill="white"/>
</g>
<mask id="mask3_283_976" style="mask-type:luminance" maskUnits="userSpaceOnUse" x="1" y="1" width="29" height="29">
<path d="M15.5 29.4804C23.2212 29.4804 29.4804 23.2211 29.4804 15.4999C29.4804 7.77878 23.2212 1.51953 15.5 1.51953C7.77885 1.51953 1.51961 7.77878 1.51961 15.4999C1.51961 23.2211 7.77885 29.4804 15.5 29.4804Z" fill="white"/>
</mask>
<g mask="url(#mask3_283_976)">
<path d="M0.757889 0.759766H30.2383V30.2402H0.757889V0.759766Z" fill="#4A8CFF"/>
</g>
<mask id="mask4_283_976" style="mask-type:luminance" maskUnits="userSpaceOnUse" x="6" y="10" width="19" height="11">
<path d="M19.7554 13.6855L23.7064 10.7983C24.0513 10.5171 24.3142 10.5825 24.3142 11.1022V19.9068C24.3142 20.4903 23.986 20.4235 23.7064 20.2107L19.7554 17.3235V13.6855ZM6.38281 11.1235V17.6882C6.38643 18.4009 6.67292 19.083 7.17929 19.5845C7.68566 20.086 8.37047 20.3659 9.08316 20.3627H18.6567C18.7862 20.3631 18.9106 20.3121 19.0026 20.221C19.0946 20.1298 19.1467 20.0059 19.1475 19.8764V13.3117C19.1439 12.599 18.8574 11.9169 18.3511 11.4154C17.8447 10.9139 17.1599 10.634 16.4472 10.6372H6.87365C6.74413 10.6368 6.61974 10.6877 6.52774 10.7789C6.43573 10.87 6.38362 10.994 6.38281 11.1235Z" fill="white"/>
</mask>
<g mask="url(#mask4_283_976)">
<path d="M5.62109 9.87744H25.0721V21.1226H5.62109V9.87744Z" fill="white"/>
</g>
</g>
</g>
<path fill-rule="evenodd" clip-rule="evenodd" d="M103.326 11.947C103.628 12.4686 103.727 13.0612 103.759 13.7278L103.802 14.6151V20.8278L103.846 21.7181C103.932 23.1702 105.003 24.2443 106.467 24.3353L107.353 24.3785V14.6166L107.396 13.7293C107.433 13.072 107.531 12.4671 107.838 11.9408C108.822 10.2465 110.993 9.67089 112.689 10.6523C113.226 10.964 113.672 11.4115 113.984 11.9516C114.285 12.4732 114.381 13.0766 114.418 13.7293L114.461 14.6151V20.8293L114.504 21.7197C114.595 23.1779 115.658 24.252 117.127 24.3368L118.01 24.38V13.7309C118.01 9.80823 114.833 6.62938 110.91 6.62938C108.872 6.62783 106.929 7.50433 105.583 9.03358C104.236 7.50279 102.295 6.62629 100.256 6.62629C98.7826 6.62629 97.4138 7.0738 96.2796 7.84691C95.5867 7.0738 94.042 6.62629 93.1517 6.62629V24.38L94.039 24.3368C95.5235 24.2396 96.599 23.1934 96.6561 21.7197L96.704 20.8293V14.6166L96.7472 13.7293C96.7842 13.0581 96.8768 12.4701 97.1808 11.9455C97.8166 10.8498 98.9878 10.177 100.255 10.177C101.519 10.1755 102.691 10.8514 103.326 11.947ZM42.5477 24.3353L43.435 24.3785H56.7491L56.7059 23.4927C56.584 22.0345 55.5517 20.9666 54.0888 20.871L53.2015 20.8278H45.2127L55.8618 10.174L55.8186 9.2882C55.7492 7.8145 54.6736 6.74974 53.2015 6.66641L52.3142 6.62475L39 6.62012L39.0432 7.50742C39.1605 8.95334 40.2083 10.0428 41.6604 10.1246L42.5508 10.1693H50.538L39.8873 20.8262L39.9305 21.7135C40.0169 23.181 41.074 24.2412 42.5477 24.3353ZM89.6626 9.22339C93.1285 12.6893 93.1301 18.3109 89.6626 21.7752C86.1921 25.2411 80.5736 25.2411 77.1031 21.7752C73.6372 18.3094 73.6372 12.6862 77.1031 9.2203C78.7681 7.55526 81.0226 6.62012 83.3759 6.62012C85.7369 6.62166 87.9976 7.5568 89.6626 9.22339ZM87.152 11.7372C89.2306 13.8173 89.2306 17.189 87.152 19.2707C85.0718 21.3493 81.6985 21.3493 79.6184 19.2707C77.5398 17.1906 77.5398 13.8173 79.6184 11.7372C81.6985 9.65855 85.0718 9.65855 87.152 11.7372ZM64.7487 6.62475C67.102 6.62475 69.3596 7.56143 71.0216 9.22493C74.489 12.6908 74.489 18.314 71.0216 21.7768C67.5511 25.2427 61.9325 25.2427 58.462 21.7768C54.9961 18.3109 54.9961 12.6877 58.462 9.22184C60.127 7.5568 62.3816 6.62166 64.7348 6.62166H64.7472V6.62475H64.7487ZM68.5078 11.7341C70.588 13.8142 70.588 17.1875 68.5078 19.2692C66.4277 21.3478 63.0544 21.3478 60.9742 19.2692C58.8956 17.189 58.8956 13.8158 60.9742 11.7356C63.0575 9.65701 66.4277 9.657 68.5078 11.7341Z" fill="#2D8CFF"/>
<defs>
<clipPath id="clip0_283_976">
<rect width="31" height="31" fill="white"/>
</clipPath>
</defs>
</svg>
