<?xml version="1.0" standalone="no"?>
<!DOCTYPE svg PUBLIC "-//W3C//DTD SVG 20010904//EN"
 "http://www.w3.org/TR/2001/REC-SVG-20010904/DTD/svg10.dtd">
<svg version="1.0" xmlns="http://www.w3.org/2000/svg"
 width="500.000000pt" height="500.000000pt" viewBox="0 0 500.000000 500.000000"
 preserveAspectRatio="xMidYMid meet">

<g transform="translate(0.000000,500.000000) scale(0.100000,-0.100000)"
fill="#000000" stroke="none">
<path d="M2207 4744 c-741 -93 -1413 -582 -1736 -1264 -98 -209 -163 -420
-198 -650 -23 -158 -24 -482 0 -638 107 -689 502 -1274 1099 -1626 459 -269
1017 -365 1548 -265 499 94 954 356 1286 742 268 311 440 675 515 1087 27 147
37 469 20 620 -61 535 -292 1007 -672 1375 -187 181 -347 294 -574 406 -206
101 -406 165 -635 205 -136 23 -499 28 -653 8z m-278 -658 c8 -9 11 -90 9
-272 l-3 -259 -270 0 -270 0 -3 264 c-2 205 1 266 10 273 7 4 126 8 264 8 201
0 254 -3 263 -14z m759 -264 l2 -272 -267 2 -268 3 -3 260 c-1 143 0 265 3
273 3 10 61 12 267 10 l263 -3 3 -273z m-4 -438 c14 -5 16 -39 16 -275 l0
-269 -272 2 -273 3 -3 259 c-2 182 1 263 9 272 9 11 61 14 259 14 137 0 255
-3 264 -6z m734 -276 l-3 -273 -270 0 -270 0 -3 260 c-1 143 0 265 3 272 3 10
66 13 275 13 l270 0 -2 -272z m-3 -683 l0 -270 -264 -3 c-205 -2 -266 1 -273
10 -9 16 -11 522 -1 531 4 4 126 6 272 5 l266 -3 0 -270z m-2287 -611 c32 -22
28 -77 -6 -82 -17 -3 -25 2 -29 17 -5 20 -12 21 -124 21 l-119 0 0 -120 0
-120 120 0 120 0 0 40 0 40 -40 0 c-38 0 -40 2 -40 30 l0 30 70 0 70 0 0 -78
c0 -122 0 -122 -175 -122 -143 0 -144 0 -164 26 -19 24 -21 40 -21 156 0 124
1 130 25 153 23 24 29 25 157 25 106 0 138 -3 156 -16z m406 -5 c24 -19 26
-27 26 -93 0 -81 -11 -105 -59 -121 l-31 -10 33 -36 c17 -20 41 -45 51 -57
l19 -22 -45 0 c-43 0 -47 3 -92 60 l-47 60 -65 0 -64 0 0 -60 0 -60 -30 0 -30
0 0 180 0 180 154 0 c140 0 156 -2 180 -21z m127 -116 c0 -76 2 -157 5 -180
l4 -43 -35 0 -36 0 1 174 c1 96 4 177 8 180 3 3 16 6 29 6 23 0 23 0 24 -137z
m389 117 c18 -18 20 -33 20 -160 0 -189 10 -180 -200 -180 l-160 0 0 180 0
180 160 0 c147 0 162 -2 180 -20z m405 -5 c35 -34 33 -65 -4 -65 -16 0 -31 6
-35 15 -4 12 -27 15 -121 15 l-115 0 0 -45 0 -45 129 0 c128 0 130 0 150 -26
32 -40 29 -126 -4 -159 -23 -24 -29 -25 -160 -25 -122 0 -137 2 -155 20 -11
11 -20 31 -20 45 0 21 5 25 30 25 20 0 30 -5 30 -15 0 -13 17 -15 118 -13
l117 3 3 43 3 42 -128 0 c-166 0 -173 4 -173 101 0 105 6 109 175 109 131 0
137 -1 160 -25z m554 -1 c19 -24 21 -40 21 -181 l0 -154 -32 3 c-27 2 -33 7
-34 28 -1 14 -2 40 -3 58 l-1 32 -115 0 -114 0 -3 -57 c-3 -58 -3 -58 -37 -61
l-33 -3 3 159 c5 212 -4 202 185 202 142 0 143 0 163 -26z m411 -1 c20 -25 21
-36 16 -98 -10 -105 -16 -109 -177 -113 l-131 -4 4 -59 4 -59 -33 0 -33 0 0
173 c0 96 3 177 7 180 3 4 77 7 164 7 l158 0 21 -27z m380 7 c17 -17 20 -33
20 -99 0 -74 -2 -81 -26 -100 -24 -19 -40 -21 -150 -21 l-124 0 0 -60 0 -60
-30 0 -30 0 0 180 0 180 160 0 c147 0 162 -2 180 -20z m389 -6 c31 -40 28 -64
-9 -64 -18 0 -33 6 -36 15 -5 12 -28 15 -120 15 l-114 0 0 -45 0 -45 127 0
c116 0 129 -2 150 -22 18 -17 23 -32 23 -69 0 -52 -14 -99 -33 -111 -7 -4 -76
-8 -154 -8 l-142 0 -21 27 c-11 15 -19 34 -18 42 4 22 56 27 64 7 5 -13 26
-16 119 -16 106 0 114 1 120 21 4 11 4 31 1 45 -6 24 -7 24 -135 24 -157 0
-162 3 -162 106 0 100 6 104 181 104 138 0 139 0 159 -26z"/>
<path d="M1260 1716 l0 -53 38 -7 c47 -7 150 -8 180 0 19 6 22 13 22 60 l0 54
-120 0 -120 0 0 -54z"/>
<path d="M1770 1650 l0 -120 120 0 120 0 0 120 0 120 -120 0 -120 0 0 -120z"/>
<path d="M2738 1764 c-5 -4 -8 -31 -8 -61 l0 -54 118 3 117 3 -4 50 c-1 28 -5
52 -8 55 -8 8 -207 12 -215 4z"/>
<path d="M3139 1766 c-2 -2 -2 -27 -1 -55 l4 -51 114 0 114 0 0 55 0 55 -113
0 c-63 0 -116 -2 -118 -4z"/>
<path d="M3520 1710 l0 -60 120 0 120 0 0 60 0 60 -120 0 -120 0 0 -60z"/>
</g>
</svg>
