<svg width="57" height="57" viewBox="0 0 57 57" fill="none" xmlns="http://www.w3.org/2000/svg">
<g clip-path="url(#clip0_283_3299)">
<path d="M28.7234 56.8863C44.1867 56.8863 56.7222 44.3508 56.7222 28.8875C56.7222 13.4242 44.1867 0.888672 28.7234 0.888672C13.2601 0.888672 0.724609 13.4242 0.724609 28.8875C0.724609 44.3508 13.2601 56.8863 28.7234 56.8863Z" fill="white"/>
<path d="M55.1231 19.5508H37.8711C38.6205 25.5321 38.6249 32.1225 37.8856 38.1114H55.1597C56.1955 35.1462 56.7238 32.0276 56.7225 28.8868C56.723 25.6116 56.1557 22.4709 55.1231 19.5508Z" fill="#EFECEC"/>
<path d="M37.8712 19.5515H55.1227C55.1203 19.5432 55.1173 19.5351 55.1138 19.5272C51.531 9.42276 42.3131 1.98876 31.2383 1.00195C35.5236 3.3514 36.7756 10.7946 37.8712 19.5515Z" fill="#C42B27"/>
<path d="M31.2383 56.7705C42.3334 55.7819 51.5642 48.3223 55.1338 38.1909C55.1431 38.1639 55.1511 38.1375 55.1608 38.1113H37.8862C36.799 46.9154 35.5417 54.4114 31.2383 56.7705Z" fill="#0B0B0B"/>
<path d="M0.722656 28.8868C0.722656 32.1199 1.27795 35.2222 2.28545 38.1114H39.3266C40.0667 32.1222 40.0613 25.5321 39.3129 19.5508H2.32269C1.28989 22.4709 0.722656 25.6116 0.722656 28.8868Z" fill="#EFEFEF"/>
<path d="M2.33113 19.5269C2.32844 19.5351 2.32549 19.5432 2.32227 19.5512H39.3126C38.2162 10.7944 35.5228 3.35108 31.237 1.00175C30.4081 0.928333 29.5699 0.886719 28.7219 0.886719C16.5414 0.886719 6.18332 8.66605 2.33113 19.5269Z" fill="#CC3434"/>
<path d="M39.3264 38.1113H2.28516C2.2945 38.1375 2.30324 38.1639 2.31211 38.1909C6.14881 49.0795 16.522 56.8862 28.7219 56.8862C29.5699 56.8862 30.4081 56.8446 31.2371 56.7704C35.541 54.4114 38.2392 46.9154 39.3264 38.1113Z" fill="#151515"/>
<path d="M34.1872 35.3997C33.8485 35.309 33.3462 35.3834 32.9413 35.359C32.8644 35.4041 32.8742 35.5367 32.8397 35.6251C32.8795 35.7074 32.9621 35.6623 33.0443 35.7268C33.1721 35.8493 33.2591 36.015 33.4528 36.0739C33.2861 36.2485 33.2906 36.5929 33.0443 36.6871C33.0859 37.0886 32.825 37.1593 32.4311 37.2381C30.5459 37.6139 27.6143 37.6518 25.6102 37.3804C25.3613 37.3477 24.6309 37.2389 24.4452 37.0749C24.3718 37.0086 24.3276 36.91 24.3435 36.727C24.107 36.6093 24.1044 36.2579 23.9151 36.0939C24.1795 36.0042 24.2303 35.7017 24.5283 35.6448C24.5372 35.5197 24.4833 35.4573 24.466 35.3591C24.0456 35.3817 23.5345 35.3118 23.1795 35.3998C23.2123 34.9431 23.2228 34.4241 23.2618 33.8887C23.3136 33.173 23.306 32.3343 23.3635 31.622C23.3935 31.2586 23.3816 30.8827 23.4051 30.5193C23.4475 29.8291 23.417 29.1439 23.4666 28.4971C23.5192 27.7995 23.4948 27.0541 23.5479 26.3944C23.6023 25.7105 23.7906 25.164 24.5891 25.2294C25.5356 25.3081 26.1303 26.1008 27.1621 26.1075C27.6414 25.8112 27.9901 24.6604 27.8562 23.8001C27.7947 23.4022 27.3734 22.827 26.9583 23.0445C26.8968 22.3734 27.5362 22.4636 27.9583 22.6767C28.087 22.5962 28.125 22.4831 28.2648 22.4521C28.6109 22.3751 29.0557 22.5326 29.225 22.6361C29.5464 22.8328 29.6954 23.2692 29.6949 23.8209C29.6941 24.1065 29.6304 24.3907 29.6533 24.6781C29.7041 25.2878 29.9115 25.7834 30.1644 26.0876C31.1228 26.1756 31.8276 25.3219 32.7574 25.2294C33.1531 25.1905 33.4829 25.339 33.6562 25.5972C33.9206 26.5782 33.8366 27.6619 33.9215 28.7628C33.9724 29.4223 33.9423 30.1117 33.983 30.785C34.0753 32.3071 34.1208 33.8355 34.1872 35.3997ZM29.5918 24.7188C29.5502 24.1645 29.7041 23.5703 29.5105 23.0644C29.4198 22.9782 29.3672 22.8535 29.2444 22.7991H28.9389C28.7859 22.8814 28.7297 23.0511 28.5711 23.0847C28.1935 23.1652 28.1635 22.8067 27.877 22.697C27.8028 22.6678 27.7019 22.6842 27.6109 22.6553C27.3372 22.5718 27.175 22.4741 27.0393 22.86C27.5392 22.8308 27.9858 22.9922 28.1013 23.4117C27.8156 23.3322 27.8957 23.5886 27.9173 23.7579C28.0225 24.5996 27.835 25.2779 27.5495 25.7394C27.4138 25.9596 27.2397 26.1316 27.1411 26.3318C27.4382 26.2766 27.7065 26.2938 27.856 26.1064C28.0562 25.8571 28.013 25.3234 28.1416 25.0245C28.1296 25.6586 27.9497 26.1263 27.6521 26.4742C28.3798 26.3716 28.5063 25.7646 28.5709 25.0245C28.6243 25.3915 28.5266 25.7845 28.4069 26.0454C28.5011 26.163 28.5545 26.3209 28.6933 26.3933C28.8082 26.2974 28.8936 26.1714 28.9586 26.0255C28.8526 25.7846 28.7266 25.3469 28.8361 25.0246C28.8268 25.8102 29.0417 26.3718 29.715 26.4743C29.4441 26.1317 29.1823 25.564 29.2649 25.0038C29.2884 25.4433 29.3945 25.8001 29.5302 26.1272C29.7177 26.2466 29.9542 26.3165 30.246 26.3318C29.9199 25.9346 29.6444 25.4063 29.5918 24.7188ZM28.3062 22.8606V22.9419C28.3552 22.934 28.3504 22.98 28.4074 22.9627C28.4254 22.9393 28.4353 22.9083 28.4282 22.861C28.4017 22.8333 28.3318 22.8333 28.3062 22.8606ZM24.3644 25.2904C23.913 25.3258 23.6693 25.7034 23.6703 26.1486C23.8679 26.0805 24.0563 25.8957 24.2627 25.9033C24.1521 28.9764 24.0174 31.7722 23.8949 34.8077C23.7172 34.9753 23.49 35.096 23.3639 35.318H24.4666C24.5245 34.8308 25.0719 34.7309 25.5286 34.8679C25.7452 34.1185 25.9655 33.3723 26.1626 32.6012C25.9598 32.7255 25.8562 32.9483 25.6516 33.0712C25.725 31.1059 25.8244 29.1934 25.8969 27.1898C26.2121 27.4351 26.7241 27.4498 27.2241 27.3737C27.8226 27.2822 28.3404 26.9506 28.7144 26.7199C29.1065 27.0678 29.825 27.3587 30.5526 27.4139C31.0058 27.4485 31.2149 27.3008 31.4922 27.23C31.5346 29.2323 31.6779 31.1908 31.7168 33.0915C31.5501 32.9377 31.4126 32.7555 31.2273 32.6211C31.4077 33.3939 31.6425 34.1124 31.8396 34.8679C32.3153 34.7177 32.8405 34.8481 32.9223 35.318C33.2822 35.3043 33.6977 35.345 34.024 35.2972C33.8954 35.069 33.5783 35.0036 33.4939 34.7662C33.398 34.4988 33.4678 34.0912 33.4532 33.7446C33.3409 31.275 33.184 28.358 33.1261 25.8834C33.3574 25.9378 33.5041 26.0771 33.7185 26.1487C33.6725 25.6567 33.4683 25.3215 33.0036 25.2905C31.9466 25.2198 31.3369 26.192 30.2675 26.1686C30.2675 26.2982 30.4757 26.3274 30.4514 26.4139C30.2468 26.3993 29.9439 26.3839 29.7365 26.3122C29.7167 26.4254 29.9223 26.4771 29.9404 26.6177C29.5345 26.5488 29.2298 26.3776 28.981 26.1486C28.8859 26.2843 28.8006 26.4312 28.6745 26.5364C28.5667 26.4139 28.4999 26.2472 28.3681 26.1486C28.1533 26.3966 27.8544 26.5606 27.4295 26.5977C27.4892 26.4943 27.6125 26.4544 27.6333 26.3121C27.445 26.3775 27.1316 26.4209 26.9184 26.3944C26.9817 26.3201 27.0895 26.2927 27.1024 26.1689C26.0869 26.1972 25.3799 25.2122 24.3644 25.2904ZM26.3451 27.4971C26.3857 29.7358 27.2394 31.3403 28.7134 32.2144C30.1184 31.2904 31.0102 29.7457 31.0216 27.4971C30.3014 27.4877 29.7939 27.383 29.3473 27.1906C29.0962 27.0828 28.8544 26.8842 28.6533 26.8228C28.098 27.261 27.338 27.4961 26.3451 27.4971ZM26.3857 28.9874C26.3667 29.9795 26.208 31.1908 26.2841 32.2143C26.4923 31.6625 26.4343 30.9631 26.468 30.2337C26.4906 29.7452 26.5905 29.2509 26.4065 28.9264C26.4074 28.9542 26.3967 28.9706 26.3857 28.9874ZM30.92 30.8256C30.92 31.3748 30.9469 31.9101 31.1238 32.2341C31.1446 31.1479 31.0079 30.0183 31.0022 28.9458C30.9753 28.9449 30.974 28.9206 30.9408 28.9259C30.7988 29.4649 30.92 30.1598 30.92 30.8256ZM26.7129 31.9897C26.8888 31.7912 27.0851 31.613 27.2438 31.3963C27.2168 30.9541 27.1099 30.5917 26.876 30.3556C26.8123 30.88 26.3078 31.5568 26.7129 31.9897ZM30.1436 31.4172C30.3355 31.5941 30.4994 31.9054 30.7152 31.9898C31.0199 31.4932 30.5803 30.9605 30.5322 30.3964C30.5052 30.3955 30.503 30.3694 30.4699 30.3765C30.267 30.628 30.1481 30.9654 30.1436 31.4172ZM27.4069 32.3368C27.5953 32.1365 27.7584 31.911 27.9171 31.6829C27.6633 31.4808 27.4785 31.2099 27.2438 30.9878C27.2964 31.4393 27.3261 31.9128 27.4069 32.3368ZM29.4698 31.7027C29.6485 31.9119 29.7745 32.174 30.0008 32.3368C30.0424 31.8946 30.076 31.4455 30.1431 31.0294C30.1413 31.0043 30.137 30.9812 30.1024 30.9878C29.9138 31.2487 29.6887 31.4734 29.4698 31.7027ZM26.6514 32.1113C26.6262 31.98 26.5572 31.8929 26.5289 31.7651C26.353 31.9999 26.3322 32.3514 26.2433 32.6631C26.2105 32.7771 26.1319 32.8704 26.1416 32.9902C26.3754 32.8898 26.4714 32.6524 26.7132 32.5609C26.7565 32.763 26.8573 32.9062 26.917 33.0919C27.1063 33.0012 27.0974 32.7139 27.265 32.6016C27.3574 32.9305 27.4542 33.2559 27.5704 33.5618C27.788 33.3778 28.036 33.2231 28.1014 32.8876C27.9789 32.6086 27.8666 32.3195 27.7543 32.0303C27.5885 32.1435 27.4833 32.4265 27.3458 32.5003C27.3087 32.1625 27.3313 31.7663 27.2025 31.5201C27.0343 31.7324 26.8613 31.9393 26.6514 32.1113ZM30.0414 32.5198C29.8928 32.3686 29.7903 32.1727 29.633 32.0303C29.5742 32.1643 29.5052 32.2964 29.449 32.4388C29.3929 32.5811 29.292 32.7567 29.2859 32.8879C29.2704 33.2084 29.6236 33.3583 29.8168 33.5621C29.9065 33.2434 29.9464 32.8747 30.0821 32.6019C30.209 32.7615 30.2661 32.9905 30.4499 33.0922C30.5441 32.9211 30.6095 32.7209 30.6952 32.5405C30.8698 32.6934 31.0312 32.8592 31.2261 32.9905C31.1372 32.6218 31.0259 32.1018 30.8584 31.7447C30.8195 31.8734 30.7647 31.9966 30.6952 32.1117C30.5051 31.9277 30.361 31.6969 30.1435 31.5401C30.0821 31.8394 30.0574 32.1754 30.0414 32.5198ZM27.9582 31.7443C27.6276 31.98 27.9945 32.4583 28.1222 32.7254C28.1801 32.4897 28.2336 32.2506 28.2853 32.0096C28.1739 31.9242 28.0648 31.8358 27.9582 31.7443ZM29.102 32.03C29.1635 32.2612 29.1666 32.5507 29.286 32.725C29.4001 32.4841 29.4845 32.2149 29.5915 31.9686C29.5335 31.8842 29.4964 31.7776 29.3877 31.744C29.339 31.8849 29.159 31.8964 29.102 32.03ZM26.631 32.6422C26.4706 32.8089 26.3159 32.981 26.1001 33.0923C25.9578 33.5043 26.2521 33.854 26.3857 34.1742C26.5715 34.0393 26.651 33.7984 26.8358 33.6641C26.9101 33.9032 26.9609 34.165 27.0811 34.3581C27.2814 34.2176 27.3963 33.8851 27.5904 33.8072C27.6355 34.0283 27.6329 34.2957 27.7544 34.4403C27.8269 34.0499 27.9202 33.6804 27.9989 33.2961C27.834 33.3297 27.7137 33.5818 27.5498 33.6847C27.4366 33.3894 27.3632 33.0552 27.2443 32.7652C27.0838 32.8775 27.0613 33.1277 26.9171 33.2555C26.834 33.0388 26.7752 32.7988 26.631 32.6422ZM30.4292 33.2555C30.3125 33.0862 30.2435 32.8704 30.0614 32.7652C29.988 33.0725 29.9044 33.3705 29.8377 33.6847C29.6675 33.5871 29.5534 33.3289 29.3877 33.2961C29.4699 33.6967 29.5163 34.134 29.6733 34.4602C29.7069 34.2218 29.7475 33.9898 29.8166 33.7869C30.0005 33.9637 30.0964 34.2281 30.3267 34.3585C30.3908 34.1158 30.4779 33.8974 30.5513 33.6644C30.7242 33.8121 30.806 34.0495 31.0014 34.1745C31.1145 33.8465 31.4019 33.5405 31.2866 33.1135C31.0744 32.9786 30.9161 32.7899 30.715 32.6431C30.5959 32.8227 30.553 33.0786 30.4292 33.2555ZM28.2041 34.8683C28.0989 34.927 28.0247 35.0169 27.9177 35.0729C27.8744 35.0221 27.7484 34.8554 27.7139 34.9296C27.6856 35.011 27.6821 35.1162 27.6524 35.1958C27.8473 35.2138 28.2329 35.1388 28.3257 35.3182C28.6019 35.2802 28.8248 35.37 29.0406 35.3182C29.1211 35.2984 29.1838 35.2112 29.2652 35.1958C29.4172 35.1657 29.5649 35.2227 29.7153 35.1958C29.6874 35.1068 29.7091 34.9703 29.653 34.9101C29.519 34.9048 29.5424 35.057 29.4085 35.0525C29.3386 34.9592 29.2126 34.9211 29.1423 34.8278C29.0646 34.2598 29.0155 33.6611 28.8979 33.1328C28.8514 33.6973 28.981 34.2606 28.9584 34.8685C28.8488 34.9627 28.7962 35.1148 28.6728 35.1956C28.6263 35.059 28.4407 34.9892 28.4066 34.8079C28.3177 34.3087 28.5924 33.5351 28.4689 33.1328C28.3544 33.6847 28.3292 34.3272 28.2041 34.8683ZM25.5895 34.8891C25.6766 34.9443 25.7778 34.9867 25.9366 34.9704C26.0706 34.8126 26.1621 34.611 26.3244 34.481C26.3968 34.7011 26.473 34.9186 26.5706 35.1141H26.713C26.8235 34.9801 26.885 34.7962 26.9986 34.6649C27.0702 34.8245 27.1046 35.0217 27.1816 35.1751C27.2749 35.2122 27.4261 35.1896 27.5494 35.1959C27.7558 34.8462 27.6754 34.2909 27.5295 33.9302C27.342 34.0969 27.2315 34.3396 27.0393 34.5018C26.9562 34.2652 26.9261 33.9752 26.7732 33.8077C26.6308 33.9699 26.503 34.1485 26.3655 34.3178C26.2205 34.0614 26.1798 33.6998 25.9769 33.5008C25.8676 33.9823 25.7288 34.4359 25.5895 34.8891ZM31.0018 34.3174C30.8603 34.1453 30.7581 33.9331 30.5725 33.8072C30.4527 34.0067 30.4341 34.309 30.3064 34.5013C30.1494 34.3244 30.0075 34.0256 29.8169 33.9496C29.7227 34.3664 29.5994 34.8475 29.8377 35.1954C29.9544 35.1901 30.0977 35.2109 30.1848 35.1746C30.2791 35.0313 30.2944 34.8086 30.3887 34.6645C30.4748 34.8165 30.5673 34.9616 30.6539 35.1136H30.8171C30.9086 34.8988 30.9719 34.6551 31.0832 34.4597C31.1938 34.6556 31.3259 34.8293 31.471 34.9906C31.5851 34.9614 31.7292 34.9627 31.7774 34.8682C31.639 34.4278 31.5236 33.9649 31.3897 33.521H31.3282C31.2316 33.7984 31.1176 34.0592 31.0018 34.3174ZM25.998 35.0119C26.17 35.0318 26.3004 35.0907 26.4882 35.0933C26.4237 34.9195 26.3924 34.7126 26.2636 34.6038C26.1947 34.7587 26.0506 34.84 25.998 35.0119ZM30.8991 35.0929C31.0158 35.1031 31.2126 35.0283 31.3691 35.0116C31.3536 34.8883 31.1945 34.7388 31.1038 34.6238C30.9752 34.7197 30.9482 34.9186 30.8991 35.0929ZM26.7942 35.1344C26.8613 35.176 27.0016 35.1454 27.1006 35.1552C27.0617 35.0367 27.0688 34.8736 26.9583 34.8281C26.8976 34.9244 26.826 35.0084 26.7942 35.1344ZM30.2869 35.1552H30.5725C30.5455 35.004 30.4947 34.878 30.3678 34.8281C30.3629 34.9496 30.2577 35.0645 30.2869 35.1552ZM32.2679 34.8683C31.7904 34.9727 31.1698 35.1534 30.5728 35.2162C30.1136 35.2635 29.7024 35.2777 29.2655 35.2569C29.1458 35.3864 29.2076 35.5349 29.2863 35.6653C29.7014 35.7276 30.1679 35.6989 30.5728 35.6445C30.5503 35.2112 31.0649 35.1038 31.1238 35.5632C31.565 35.4664 32.0588 35.4217 32.4103 35.2361C32.4138 35.0637 32.413 34.8935 32.2679 34.8683ZM26.4272 35.1751C26.0767 35.1251 25.6045 34.9593 25.2831 34.8894C25.1009 34.8496 25.0465 34.8823 24.9776 34.9708V35.2572C25.3534 35.412 25.8154 35.4809 26.2641 35.5637C26.3022 35.1026 26.8202 35.1888 26.7942 35.645C27.2381 35.6986 27.6267 35.7281 28.0816 35.6658C28.1723 35.5225 28.2319 35.4169 28.1223 35.2573C27.5762 35.2693 27.0877 35.2706 26.4272 35.1751ZM24.5691 35.42C24.7106 35.3837 24.8202 35.3174 24.9162 35.2361C24.9069 35.1366 24.937 34.9969 24.8954 34.9296C24.6663 34.9616 24.5031 35.1628 24.5691 35.42ZM32.4718 35.2569C32.5744 35.324 32.6782 35.3918 32.8189 35.42C32.8671 35.1791 32.7212 34.9616 32.4926 34.9298C32.4501 35.0032 32.4811 35.1508 32.4718 35.2569ZM26.5289 35.8078C26.5731 35.757 26.6359 35.7247 26.6921 35.6853C26.7066 35.5213 26.6859 35.3926 26.6107 35.3183C26.2518 35.2683 26.2654 35.768 26.5289 35.8078ZM30.6746 35.6653C30.7038 35.736 30.7979 35.7515 30.8785 35.8077C30.962 35.7617 31.0018 35.672 31.0624 35.6039C31.0521 35.156 30.5384 35.3392 30.6746 35.6653ZM26.2226 35.6247C25.6788 35.6066 25.131 35.225 24.65 35.4615C24.6345 35.5609 24.5611 35.603 24.5885 35.7467C24.3582 35.7223 24.0929 36.0292 24.0783 36.1353C24.0464 36.3673 24.2777 36.5358 24.4045 36.687C24.39 36.8303 24.4173 36.9323 24.466 37.0124C26.1947 37.5849 29.0511 37.5969 31.1848 37.3603C31.8117 37.2904 32.8108 37.2264 32.9824 36.87V36.6247C33.2088 36.565 33.2449 36.3165 33.3087 36.0938C33.1274 35.9753 33.0659 35.7379 32.7777 35.7268C32.8347 35.6445 32.7379 35.5698 32.737 35.4815C32.4824 35.2649 32.1782 35.4236 31.8183 35.5014C31.3236 35.6092 30.9995 35.6101 30.878 35.9718C30.8271 35.8457 30.7051 35.7905 30.6127 35.7056C30.2223 35.7626 29.7086 35.8042 29.3062 35.7265C29.2 35.8922 28.9667 35.9311 28.9384 36.1756C28.8805 36.0226 28.7837 35.9082 28.7951 35.6853H28.5913C28.5621 35.8754 28.5206 36.0505 28.4273 36.1756C28.411 35.9267 28.1683 35.9046 28.0812 35.7265C27.6864 35.818 27.121 35.7353 26.773 35.7265C26.6333 35.7697 26.5736 35.8932 26.4675 35.9719C26.4521 35.7905 26.3044 35.7405 26.2226 35.6247ZM28.4486 35.3789C28.4738 35.4841 28.5437 35.5429 28.5919 35.6251C28.8408 35.676 28.8629 35.5018 28.939 35.3789C28.819 35.3458 28.5684 35.3458 28.4486 35.3789ZM28.1625 35.7268C28.2496 35.8157 28.3363 35.9072 28.4689 35.9514C28.5485 35.7397 28.4933 35.4258 28.2643 35.3997C28.2827 35.5611 28.1453 35.5659 28.1625 35.7268ZM29.041 35.3997C28.9142 35.4912 28.7546 35.8307 28.9587 35.9514C29.0365 35.8511 29.1753 35.8139 29.2249 35.6853C29.1392 35.6145 29.1582 35.4381 29.041 35.3997Z" fill="#EEBC31"/>
<path d="M24.7115 33.9706C24.4913 34.1647 24.2339 34.4317 24.0174 34.5622C24.1142 31.7747 24.2919 28.9108 24.3852 26.0265C24.5961 26.1223 24.8273 26.3726 25.0182 26.5574C24.9298 29.0512 24.814 31.3369 24.7115 33.9706ZM33.3706 34.5422C33.2539 34.5648 33.1403 34.3737 33.0235 34.2761C32.8913 34.1665 32.7361 34.0749 32.6557 33.9498C32.5271 31.8462 32.5581 29.6264 32.3896 27.6196C32.3644 27.308 32.3016 26.7655 32.3489 26.5776C32.413 26.3288 32.8353 26.2341 32.9621 26.0068C33.1181 28.5685 33.2247 31.7826 33.3706 34.5422ZM25.2017 26.701C25.3976 26.8106 25.5395 26.9747 25.7119 27.1095C25.6628 28.751 25.5598 30.7163 25.4872 32.3568C25.4771 32.597 25.546 32.9749 25.4664 33.1947C25.3802 33.4321 25.0469 33.5599 24.8948 33.7663C24.9842 31.3878 25.123 29.0313 25.2017 26.701ZM32.4717 33.7252C32.4448 33.7534 32.3882 33.6819 32.3493 33.6429C32.2286 33.5235 32.0601 33.3396 31.9408 33.2144C31.8374 31.2169 31.7586 29.1329 31.6755 27.1491C31.7904 26.9643 31.9863 26.8609 32.1455 26.7198C32.2644 28.8691 32.3688 31.421 32.4717 33.7252ZM30.8377 27.599C30.8067 29.691 29.9879 31.1738 28.6935 32.0709C27.3707 31.1615 26.597 29.7025 26.4674 27.599C27.4007 27.5928 28.1943 27.3381 28.6935 26.9659C29.1971 27.388 29.946 27.5644 30.8377 27.599ZM27.9582 27.4557C27.9219 28.2917 27.9384 29.4177 27.9384 30.3356C27.9384 30.6707 27.8694 31.0642 27.9384 31.3158C27.9747 31.4471 28.1775 31.5686 28.2855 31.6629C28.4252 31.7854 28.5393 31.8959 28.6732 31.9693C28.8727 31.8128 29.3589 31.5736 29.4296 31.3154C29.496 31.0683 29.4296 30.6885 29.4296 30.356V27.4553C29.1643 27.3249 28.915 27.1798 28.6533 27.0468C28.4658 27.2284 28.1594 27.289 27.9582 27.4557ZM25.1407 34.9914C25.2685 35.0339 25.4706 35.0016 25.4878 35.1554C25.38 35.1953 25.2929 35.0551 25.1407 35.0731V34.9914ZM32.2471 35.0325C32.1582 35.1067 32.0159 35.1267 31.9 35.1748C31.8966 35.0325 32.1737 34.9636 32.2471 35.0325ZM25.7535 35.1961C25.9255 35.2151 26.0895 35.2411 26.1819 35.3384C26.048 35.3438 25.7804 35.3107 25.7535 35.1961ZM31.6348 35.2164C31.5751 35.2889 31.3258 35.357 31.1848 35.338C31.2798 35.2571 31.4862 35.1771 31.6348 35.2164ZM30.5115 35.4817C30.4045 35.5153 30.1689 35.5153 30.0614 35.4817C30.0968 35.3438 30.4655 35.3557 30.5115 35.4817ZM27.3667 35.4202C27.3269 35.5715 27.0396 35.4746 26.8765 35.5016C26.8892 35.3186 27.2301 35.4202 27.3667 35.4202ZM27.9786 35.4619C27.8791 35.5145 27.6642 35.5508 27.5493 35.5224C27.5904 35.4119 27.8606 35.4246 27.9786 35.4619ZM29.8173 35.5432C29.6608 35.5353 29.5308 35.5025 29.388 35.4817C29.465 35.4091 29.8173 35.403 29.8173 35.5432ZM32.6357 36.3195C32.7282 36.3169 32.6782 36.1708 32.7781 36.1762C32.7635 36.2385 32.7989 36.2504 32.7979 36.2986C32.6795 36.3619 32.5778 36.3929 32.431 36.3393C32.2705 36.4247 32.0716 36.719 31.8594 36.5025C31.7125 36.5268 31.7343 36.7173 31.6139 36.7686C31.4508 36.64 31.3107 36.7032 31.0622 36.727C30.9888 36.8106 30.9826 36.96 30.8375 36.9723C30.8464 36.879 30.9583 36.8892 30.96 36.7893C30.9374 36.7229 30.8212 36.7512 30.7761 36.707C30.738 36.5395 30.8685 36.5403 30.9194 36.4616C31.0126 36.4841 31.0206 36.5911 31.0418 36.687C31.1179 36.6878 31.1705 36.6662 31.2258 36.6454C31.2431 36.5269 31.3036 36.4513 31.3681 36.3801C31.3646 36.267 31.2947 36.113 31.3067 36.053C31.4233 36.0799 31.3672 36.2794 31.4291 36.3594C31.5861 36.3449 31.6794 36.3957 31.7148 36.5018C31.8735 36.4412 31.9212 36.2564 32.1232 36.2573C32.2121 36.2573 32.2599 36.3351 32.3478 36.3187C32.3722 36.0478 32.3014 35.4907 31.9601 35.7055C31.9756 35.5985 32.1268 35.626 32.2457 35.6242C32.4603 35.7717 32.2547 36.3385 32.6357 36.3195ZM31.9205 36.4826C32.0147 36.567 32.2511 36.5215 32.2269 36.3601C32.1693 36.2571 31.8802 36.3014 31.9205 36.4826ZM31.5124 36.5843C31.5588 36.5697 31.6158 36.5662 31.6547 36.5436C31.6547 36.3107 31.3284 36.4264 31.5124 36.5843ZM31.3284 36.6457C31.3792 36.6493 31.3917 36.6139 31.4301 36.6041C31.4293 36.5378 31.439 36.4608 31.3686 36.4618C31.3316 36.4981 31.2732 36.5799 31.3284 36.6457ZM30.8377 36.6874C30.9009 36.7156 30.9301 36.6962 30.981 36.6666C30.981 36.6183 30.9456 36.606 30.9601 36.5441C30.8757 36.5481 30.8223 36.5817 30.8377 36.6874ZM31.5322 36.6874C31.5968 36.7417 31.6817 36.6848 31.6755 36.6043C31.6123 36.617 31.5314 36.6096 31.5322 36.6874ZM25.2216 35.727V35.8287C25.1924 35.8605 25.1172 35.8468 25.0584 35.8495C25.0412 35.777 25.0558 35.7987 25.0386 35.727C25.0947 35.6775 25.158 35.6899 25.2216 35.727ZM25.1809 35.972C25.1835 36.0083 25.1557 36.0153 25.1601 36.0533C25.077 36.0551 25.0005 36.0507 24.997 35.972C25.0307 35.941 25.1482 35.941 25.1809 35.972ZM29.4698 36.1356H29.5512C29.5812 36.1648 29.5812 36.2696 29.5512 36.2988H29.4698C29.4398 36.2691 29.4398 36.1647 29.4698 36.1356ZM27.223 36.1758C27.2862 36.4419 27.3318 37.0158 27.1005 37.0539C26.8702 37.091 26.9365 36.743 26.7127 36.7267C26.5761 36.7767 26.4072 36.8346 26.2636 36.7683C26.1619 36.7754 26.1782 36.9005 26.0797 36.9116C26.211 36.7759 26.1557 36.6034 26.1411 36.4412C26.2507 36.454 26.2662 36.561 26.2636 36.6875C26.3224 36.8108 26.5683 36.7282 26.6514 36.6875C26.6072 36.6013 26.552 36.5271 26.5081 36.4412C26.6332 36.4085 26.6332 36.2926 26.7534 36.2989C26.9528 36.3082 27.0014 36.6168 26.7941 36.7073C26.928 36.7574 26.9443 36.9249 27.0602 36.993C27.3296 36.9349 27.1324 36.4127 27.223 36.1758ZM26.6112 36.5026C26.6076 36.5804 26.6783 36.6251 26.7535 36.6666C27.0979 36.5118 26.624 36.1749 26.6112 36.5026ZM27.4892 36.1758C27.5556 36.3164 27.4658 36.6387 27.4476 36.8297C27.3889 36.6958 27.46 36.3557 27.4892 36.1758ZM29.7559 36.1758C29.8926 36.3115 29.7316 36.7448 29.8983 36.8491C30.038 36.8075 30.1321 36.8265 30.1644 36.7068C30.1926 36.6007 30.0459 36.5375 30.1237 36.4614C30.3059 36.4703 30.1852 36.7267 30.1644 36.8292C29.9512 36.8862 29.7333 36.9062 29.5512 36.8699C29.5623 36.7655 29.6719 36.7594 29.7558 36.7266C29.8328 36.5507 29.7117 36.3186 29.7559 36.1758ZM29.6334 36.4211C29.6462 36.5405 29.3864 36.472 29.4703 36.4003C29.4995 36.373 29.6317 36.3588 29.6334 36.4211ZM30.389 37.0954C30.4169 36.9858 30.4841 36.9185 30.5323 36.8292C30.4753 36.7151 30.2507 36.6082 30.409 36.4614C30.7228 36.5083 30.5751 37.0206 30.389 37.0954ZM30.4089 36.5636C30.419 36.6423 30.4513 36.6993 30.5322 36.7069C30.5812 36.6467 30.4889 36.4955 30.4089 36.5636ZM32.6557 36.5436C32.6549 36.663 32.5098 36.6232 32.4519 36.5843C32.4837 36.4703 32.588 36.5042 32.6557 36.5436ZM28.0608 36.5233C28.2474 36.6537 28.59 36.7245 28.8363 36.6249C28.896 36.6819 28.8897 36.8036 28.9389 36.8703C28.9632 36.8468 29.0105 36.8468 29.0614 36.8494C29.0189 36.6067 29.3567 36.547 29.347 36.8088C29.2847 36.9246 29.1017 36.9175 28.9177 36.9114C28.8341 36.9574 28.8341 37.086 28.7546 37.1351C28.6639 37.1033 28.5888 37.0555 28.5706 36.9521C28.2872 36.8933 28.2501 36.9287 27.9167 36.9114C27.8344 37.0082 27.7553 37.2085 27.6311 37.197C27.6908 37.0926 27.807 37.0468 27.8357 36.9114C27.7977 36.8336 27.6553 36.7726 27.7331 36.6453C27.929 36.6135 27.8335 36.8725 27.9984 36.8699C28.1722 36.7997 28.0392 36.6369 28.0608 36.5233ZM28.1223 36.8704C28.2329 36.8712 28.4204 36.8739 28.5714 36.8912C28.6355 36.943 28.6431 37.0508 28.7346 37.0751C28.8017 36.9862 28.9176 36.8187 28.8169 36.6874C28.5918 36.8734 28.1007 36.4455 28.1223 36.8704ZM29.1427 36.8496C29.2487 36.8677 29.2878 36.8178 29.286 36.7271C29.2085 36.6232 29.0701 36.7435 29.1427 36.8496ZM25.0792 36.6249C25.1438 36.6077 25.1425 36.6567 25.1809 36.6666C25.1835 36.7289 25.1557 36.7642 25.1402 36.8089C25.0223 36.7926 25.0223 36.6895 25.0792 36.6249ZM25.4263 36.7072C25.5125 36.8487 25.3048 36.9248 25.2424 36.8089C25.2503 36.7218 25.3149 36.6904 25.4263 36.7072ZM25.7327 36.8704C25.7128 36.8712 25.7164 36.8956 25.7119 36.912H25.5686C25.4723 36.7435 25.7407 36.6838 25.7327 36.8704ZM29.7351 36.9929C29.8439 36.9955 29.8311 37.1697 29.7559 37.1975C29.6728 37.1865 29.679 37.029 29.7351 36.9929ZM30.0211 37.1975C29.9614 37.1749 29.9004 37.1542 29.8788 37.0958C29.9407 36.9004 30.1909 37.075 30.0211 37.1975ZM25.3247 35.727H25.3862C25.3923 36.0086 24.9658 36.4897 25.4476 36.5233C25.5264 36.4733 25.483 36.3004 25.59 36.278C25.6019 36.3858 25.5484 36.4274 25.5285 36.5026C25.6218 36.7643 26.0922 36.6157 25.8963 36.3196C26.1253 36.3231 25.9454 36.5676 25.9161 36.6667C25.784 36.729 25.5939 36.6631 25.4877 36.5844C25.2605 36.5663 25.0602 36.5211 25.0386 36.2988C25.2424 36.2165 25.2874 35.9755 25.3247 35.727Z" fill="#EEBC31"/>
</g>
<defs>
<clipPath id="clip0_283_3299">
<rect width="56" height="56" fill="white" transform="translate(0.722656 0.886719)"/>
</clipPath>
</defs>
</svg>
