<svg width="57" height="57" viewBox="0 0 57 57" fill="none" xmlns="http://www.w3.org/2000/svg">
<path fill-rule="evenodd" clip-rule="evenodd" d="M28.7374 0.886719C44.1947 0.894719 56.7227 13.4277 56.7227 28.8867C56.7227 44.3507 44.1867 56.8867 28.7227 56.8867C13.2587 56.8867 0.722656 44.3507 0.722656 28.8867C0.722656 13.4277 13.2507 0.894719 28.7079 0.886719H28.7374Z" fill="#FBFBFB"/>
<path fill-rule="evenodd" clip-rule="evenodd" d="M28.6177 56.8865C16.6462 56.843 6.44528 49.2866 2.48441 38.6865H54.9587C50.9978 49.2866 40.7969 56.843 28.8255 56.8865H28.6177Z" fill="#32AB45"/>
<path fill-rule="evenodd" clip-rule="evenodd" d="M28.7363 0.886719C40.7462 0.892969 50.9878 8.46047 54.9585 19.0867H2.48441C6.45516 8.46047 16.6968 0.892969 28.7067 0.886719H28.7363Z" fill="#1D1D1D"/>
<path fill-rule="evenodd" clip-rule="evenodd" d="M5.17453 44.0417C2.35741 39.6734 0.722656 34.4709 0.722656 28.8866C0.722656 23.3022 2.35741 18.0997 5.17453 13.7314L22.7227 28.8866L5.17453 44.0417Z" fill="#E92B2B"/>
<path fill-rule="evenodd" clip-rule="evenodd" d="M9.99966 26.4011L9.22741 23.8867L8.46416 26.372L6.47541 24.8215L7.23166 27.3418H4.73216L6.73078 28.878L4.72266 30.3996L7.22153 30.4175L6.44916 32.9322L8.44828 31.3957L9.19578 33.8867L9.98391 31.3783L12.0057 32.9322L11.242 30.4462L13.7129 30.4638L11.7012 28.8955L13.7227 27.3418H11.2523L12.0317 24.8612L9.99966 26.4011Z" fill="#FBFBFB"/>
</svg>
