<svg width="56" height="56" viewBox="0 0 56 56" fill="none" xmlns="http://www.w3.org/2000/svg">
<path d="M28 56C43.464 56 56 43.464 56 28C56 12.536 43.464 0 28 0C12.536 0 0 12.536 0 28C0 43.464 12.536 56 28 56Z" fill="#3D9635"/>
<path d="M8.23309 16.3017C8.14034 17.749 8.02134 20.3092 9.10809 20.5682C10.4293 20.7047 9.70134 18.0465 10.1773 17.5635C10.2683 17.329 10.4363 17.329 10.4486 17.6247V19.8892C10.4302 20.1297 10.4951 20.3691 10.6325 20.5674C10.7698 20.7656 10.9712 20.9105 11.2028 20.9777C11.5528 20.9515 11.7803 20.9637 11.9151 21.3487C11.9734 22.6472 12.0277 23.9457 12.0778 25.2442C12.0778 25.2442 12.8846 25.5155 12.9231 23.055C12.8425 22.0807 12.8174 21.1026 12.8478 20.1255C12.8478 19.8525 13.1628 19.828 13.3868 19.9767C13.7368 20.2497 13.8873 20.5822 14.4228 20.4475C15.2418 20.1867 15.7283 19.7475 15.7423 19.037C15.7222 18.3503 15.5983 17.6706 15.3748 17.021C15.4098 16.8967 15.2121 16.5887 15.2541 16.4645C15.3993 16.7252 15.6198 16.699 15.6688 16.4645C15.5893 15.9856 15.341 15.5511 14.9688 15.2395C14.6783 14.9542 14.2496 15.0155 14.0938 15.6227C14.0775 16.3975 14.3133 17.1566 14.7658 17.7857C14.9054 18.1306 14.9623 18.5034 14.9321 18.8742C14.8233 18.9416 14.6925 18.9638 14.5675 18.936C14.4426 18.9082 14.3335 18.8326 14.2636 18.7255C14.2636 18.7255 13.6056 18.169 13.6056 18.0587C13.7649 17.4833 13.746 16.8731 13.5513 16.3087C13.4787 15.9698 13.333 15.6509 13.1243 15.3742C12.9633 15.1642 12.7428 15.1642 12.6378 15.3742C12.4063 16.1268 12.4248 16.9342 12.6903 17.6755C12.8356 18.169 13.0701 18.4787 12.9633 18.4787C12.8723 18.764 12.6868 18.6887 12.5538 18.3667C12.3939 17.6737 12.3182 16.9639 12.3281 16.2527C12.2668 15.6962 12.2003 14.5027 11.8766 14.2C11.6788 13.9025 11.3813 14.0512 11.2763 14.3365C11.2511 14.8721 11.2623 15.4088 11.3096 15.943C11.5033 16.7984 11.6383 17.6661 11.7138 18.54C11.7418 19.765 11.0873 19.065 11.1153 18.4542C11.2551 17.6804 11.2474 16.8872 11.0926 16.1162C10.9858 15.796 10.8598 15.7207 10.5956 15.7837C10.3856 15.7575 9.85534 16.4137 9.70659 17.5022C9.62875 17.8534 9.57033 18.2086 9.53159 18.5662C9.45459 19.1227 9.12734 19.5182 8.89809 18.4787C8.69509 17.7245 8.57609 15.8695 8.24359 16.3017" fill="white"/>
<path d="M11.8291 22.2379C10.6619 22.8941 9.52788 23.4874 8.37988 24.1051C8.57367 23.486 8.92863 22.9296 9.40836 22.4929C9.88809 22.0562 10.4753 21.755 11.1099 21.6201C11.8099 21.6446 11.6349 21.9299 11.8291 22.2379Z" fill="white"/>
<path d="M16.2269 14.0513C16.1508 14.067 16.0768 14.0917 16.0064 14.1248C15.8279 14.1868 15.6802 14.3153 15.5941 14.4836C15.508 14.6518 15.4902 14.8468 15.5444 15.0278C15.8769 17.3028 16.0887 19.0353 16.4194 21.2981C16.4772 21.5711 16.2742 21.9176 16.0204 21.8931C15.5847 21.5588 15.4762 20.8781 14.7342 20.9148C14.4208 20.9782 14.1348 21.1371 13.9155 21.3696C13.6961 21.6021 13.5542 21.8969 13.5092 22.2133C13.4093 22.703 13.4093 23.2077 13.5092 23.6973C13.6412 23.8886 13.8355 24.028 14.0589 24.0919C14.2824 24.1557 14.521 24.14 14.7342 24.0473C15.0597 23.8986 15.3309 23.5223 15.4464 23.6151C15.5182 23.7638 15.4359 24.9503 13.9099 25.8533C12.9667 26.3223 12.2212 26.4466 11.8099 25.5803C11.5649 25.0378 11.8292 22.9833 11.2184 23.4541C9.40191 28.7216 15.4692 29.4636 16.1499 23.6763C16.1937 23.5153 16.3249 23.3543 16.4247 23.3928C16.4702 23.4173 16.5017 23.4786 16.5122 23.6028C16.3722 28.8336 11.8204 29.1801 11.0487 27.5473C10.8616 26.9765 10.7694 26.3788 10.7757 25.7781C10.775 25.57 10.7102 25.3671 10.5902 25.1971C10.4047 25.0501 10.1579 25.4578 10.1019 26.1631C10.0462 26.5806 10.0281 27.0023 10.0477 27.4231C10.2892 31.5793 16.1517 29.7978 17.1089 26.3731C17.2977 25.2931 17.3506 24.1937 17.2664 23.1006H17.2857L17.2997 23.0883C17.8929 23.7883 18.6997 23.1741 18.8834 22.9396C18.9027 22.9046 18.93 22.8747 18.9632 22.8524C18.9963 22.8301 19.0342 22.8159 19.0739 22.8111C19.1135 22.8064 19.1537 22.8111 19.1912 22.8249C19.2287 22.8387 19.2624 22.8612 19.2894 22.8906C19.4037 22.9821 19.5389 23.0442 19.6828 23.0711C19.8268 23.0981 19.9752 23.0893 20.1149 23.0453C20.2547 23.0014 20.3814 22.9238 20.4841 22.8193C20.5867 22.7148 20.662 22.5866 20.7034 22.4461C20.8064 21.7947 20.8724 21.138 20.9012 20.4791C20.6711 20.5292 20.4552 20.6303 20.2694 20.7748C20.2448 20.8031 20.2284 20.8376 20.2222 20.8746C20.1994 21.0496 20.1749 21.2456 20.1469 21.4311C20.1437 21.4476 20.1396 21.464 20.1347 21.4801C20.1207 21.5023 20.1007 21.5199 20.0769 21.5308C20.0489 21.5498 20.0163 21.561 19.9825 21.5632C19.9487 21.5655 19.9149 21.5587 19.8846 21.5435C19.8543 21.5284 19.8286 21.5054 19.8101 21.4771C19.7916 21.4487 19.781 21.4159 19.7794 21.3821C19.6412 20.6821 19.0637 20.5648 18.7119 21.6778C18.4704 21.9018 18.0469 21.9386 17.9997 21.6288C18.0609 20.8746 17.7879 20.7748 17.2524 21.1213C17.0774 19.6373 16.9024 18.2286 16.7274 16.7463C16.9549 16.7463 17.1544 16.9318 17.3627 16.6466C17.1746 15.7677 16.8548 14.9222 16.4142 14.1388C16.4011 14.1212 16.3871 14.1042 16.3722 14.0881C16.3684 14.0878 16.3648 14.0865 16.3617 14.0844C16.3587 14.0822 16.3562 14.0793 16.3547 14.0758H16.3337C16.3232 14.0636 16.3057 14.0636 16.3039 14.0513C16.2759 14.0513 16.2514 14.0391 16.2269 14.0513ZM14.5959 22.1766C14.6671 22.1699 14.7385 22.1885 14.7973 22.2292C14.8562 22.2698 14.8989 22.3299 14.9179 22.3988C14.9393 22.4653 14.9444 22.5359 14.9329 22.6047C14.9213 22.6735 14.8934 22.7386 14.8514 22.7943C14.8042 22.8818 14.6502 22.8451 14.5347 22.8451C14.4764 22.8506 14.4178 22.8381 14.3668 22.8093C14.3158 22.7805 14.2749 22.7368 14.2494 22.6841C14.2074 22.5476 14.3229 22.4111 14.3789 22.3008C14.4349 22.1906 14.3894 22.2763 14.3982 22.2641C14.4551 22.2179 14.5234 22.1877 14.5959 22.1766Z" fill="white"/>
<path d="M20.3135 13.9264C20.1701 13.9404 20.0309 13.9826 19.904 14.0506C19.7568 14.2052 19.6644 14.4038 19.641 14.6159C19.6177 14.828 19.6645 15.042 19.7745 15.2249C20.0055 15.3369 20.2365 15.6099 20.079 15.7499C19.4315 16.5304 17.7322 17.8499 17.6465 18.0879V18.1124H17.6605C18.0794 18.184 18.5072 18.1881 18.9275 18.1246V18.1124C19.6927 17.381 20.3952 16.5866 21.0275 15.7376C20.9417 15.6519 20.8525 15.5889 20.7667 15.5031C20.7463 15.4867 20.7298 15.4659 20.7184 15.4423C20.7071 15.4187 20.7012 15.3928 20.7012 15.3666C20.7012 15.3404 20.7071 15.3145 20.7184 15.2909C20.7298 15.2673 20.7463 15.2465 20.7667 15.2301C20.9316 15.0811 21.0315 14.8734 21.045 14.6515C21.0584 14.4297 20.9842 14.2114 20.8385 14.0436C20.678 13.9563 20.4956 13.9174 20.3135 13.9316M20.233 14.6124C20.3397 14.6001 20.464 14.7244 20.527 14.8714C20.59 15.0184 20.5602 15.1934 20.4552 15.2301C20.3502 15.2669 20.205 15.1444 20.135 14.9834C20.065 14.8224 20.1035 14.6491 20.2137 14.6246C20.2137 14.6246 20.2137 14.6124 20.233 14.6124ZM8.50096 25.9734C8.20945 26.4869 8.02781 27.0554 7.96756 27.6429C7.90731 28.2303 7.96976 28.8238 8.15096 29.3859C8.23032 29.5011 8.34337 29.5891 8.47462 29.6376C8.60588 29.6862 8.74893 29.693 8.88421 29.6571C9.28846 29.4594 9.47046 28.5319 9.37071 28.1994C9.23596 27.9509 9.12921 27.9141 8.99096 28.1241C8.70921 28.7681 8.58846 28.3219 8.56221 27.9491C8.52949 27.3379 8.55528 26.7249 8.63921 26.1186C8.71096 25.6129 8.63921 25.7599 8.49746 25.9716M36.179 24.1184C35.556 22.5959 34.688 21.0996 34.4132 20.5309C34.1385 19.9621 32.0542 16.5619 31.7462 16.1664C31.0672 15.2634 32.8452 16.5496 31.5205 14.7436C31.02 14.2606 30.9955 14.2361 30.5632 13.8406C30.3602 13.6656 29.837 13.3716 29.753 13.8651C29.7052 14.2237 29.72 14.5879 29.7967 14.9414C29.9285 15.2693 30.1052 15.5773 30.3217 15.8566C32.5504 19.1703 34.4885 22.6705 36.1142 26.3181C36.4012 26.1711 36.34 24.3774 36.1702 24.1184" fill="white"/>
<path d="M33.4349 29.1881C33.3071 29.3369 33.7341 30.0159 34.2924 30.0036C35.2181 29.8934 36.0424 29.3036 36.7914 27.7531C37.1033 27.2236 37.2984 26.6335 37.3636 26.0224C37.4571 23.092 37.2477 20.1598 36.7389 17.2724C36.7065 17.071 36.7142 16.8652 36.7616 16.6669C36.8211 16.5811 37.0259 16.6669 37.1326 16.4691C37.2954 16.2836 36.7144 14.7751 36.3836 14.1941C36.2664 13.9334 36.2244 13.7619 36.0336 14.2186C35.797 14.738 35.6855 15.3056 35.7081 15.8759C36.1509 19.3146 36.2856 22.3509 36.5831 25.7809C36.6327 26.1342 36.5558 26.4937 36.3661 26.7959C35.5796 27.8009 34.5811 28.6201 33.4419 29.1951M44.0679 34.2141C43.3976 34.6481 43.3976 35.1539 43.9419 35.1661C44.4956 35.1794 45.0433 35.0485 45.5311 34.7862C46.0189 34.5238 46.4301 34.1392 46.7244 33.6699C46.9906 33.0611 47.143 32.4086 47.1741 31.7449C47.2998 28.5826 47.1311 25.4154 46.6701 22.2844C46.6109 21.9911 46.5798 21.6928 46.5774 21.3936C46.6404 21.2326 46.9396 21.4181 47.0411 21.2186C47.2056 21.0436 46.2659 19.6734 45.9299 19.0924C45.8179 18.8316 45.7759 18.6584 45.5799 19.1291C45.3589 19.6476 45.2921 20.2187 45.3874 20.7741C45.8848 24.3172 46.1956 27.8839 46.3184 31.4596C46.2948 31.7581 46.2325 32.0523 46.1329 32.3346C45.8783 32.769 45.5734 33.172 45.2246 33.5351C44.9166 33.7819 44.2726 34.0286 44.0644 34.2141" fill="white"/>
<path d="M46.4671 25.8124C46.4566 24.9374 46.4899 24.1797 46.4566 23.5234C46.4234 22.8672 46.1626 20.4189 46.0804 19.9009C45.9981 19.3829 45.8949 18.5779 45.7689 17.9462C45.6955 17.5796 45.6568 17.207 45.6534 16.8332C45.7024 16.6582 45.9176 16.8454 46.0139 16.6354C45.9038 15.6719 45.6065 14.7392 45.1389 13.8897C45.0181 13.6307 44.7889 13.7147 44.5106 14.1382C44.2446 14.4094 44.3356 15.0272 44.4424 15.6222C45.1707 19.491 45.5247 23.421 45.4994 27.3577C45.4609 27.6674 46.4776 26.4057 46.4671 25.8124ZM41.5514 20.9632C41.1296 20.9509 40.2511 20.0479 39.9956 19.5177C39.9188 19.2599 39.9361 18.9832 40.0446 18.7372C40.2004 18.6269 40.4401 18.4904 40.6169 18.6269C40.6169 18.6269 40.8024 18.9104 40.7674 18.9489C40.9949 19.0714 41.0946 18.9979 41.1174 18.8859C41.1314 18.7109 41.0456 18.6024 41.0456 18.4047C41.1419 17.8482 41.7001 17.7729 41.9206 18.1194C42.0712 18.4188 42.1514 18.7486 42.1551 19.0837C42.1551 19.2447 41.9259 19.0592 41.8051 19.0959C41.6844 19.1327 41.6459 19.2954 41.6301 19.4459C41.5931 19.9521 41.5692 20.4592 41.5584 20.9667M33.8129 26.7889C33.9319 25.5884 33.7744 23.1647 33.7639 22.4612C33.7254 20.8039 33.4786 17.5997 33.3684 17.0677C33.2354 16.0544 33.7341 17.1797 33.6624 16.5864C33.4426 15.6371 33.0192 14.7468 32.4216 13.9772C32.2361 13.6797 32.2466 13.6184 31.9491 14.0507C31.7599 14.7155 31.7733 15.4217 31.9876 16.0789C32.3877 18.0201 32.6485 19.9875 32.7681 21.9659C32.8946 24.0496 32.9103 26.1385 32.8154 28.2239C33.1321 28.2239 33.6379 27.6429 33.8129 26.7889Z" fill="white"/>
<path d="M47.8973 24.8732C47.1641 23.4732 46.0441 21.8422 45.7483 21.2857C45.4526 20.7292 42.9256 16.5747 42.6106 16.2107C41.6866 15.1344 43.0341 16.0357 42.4356 15.1834C42.1137 14.7511 41.7477 14.3535 41.3436 13.9969C41.1283 13.8482 40.9936 13.5384 40.9236 14.0459C40.8854 14.4981 40.8743 14.9522 40.8903 15.4057C40.9389 15.713 41.0654 16.0028 41.2578 16.2474C43.753 19.671 45.9692 23.2893 47.8851 27.0677C48.1651 26.9207 48.0688 25.1269 47.8956 24.8802M38.9496 38.1189C38.8195 38.1581 38.703 38.233 38.6134 38.3352C38.5239 38.4374 38.4648 38.5628 38.4431 38.6969C38.4214 38.831 38.4379 38.9686 38.4906 39.0938C38.5433 39.2191 38.6302 39.327 38.7413 39.4052C31.8376 39.4052 21.2413 39.2809 18.9786 39.2809C17.7028 39.2809 13.6866 39.1059 13.6113 39.1059C14.0107 39.715 14.5727 40.2001 15.2337 40.506C15.8948 40.8119 16.6283 40.9265 17.3511 40.8367C20.4206 40.8367 34.6218 40.7999 38.6591 40.7999C38.5569 41.075 38.5268 41.3717 38.5715 41.6617C38.6162 41.9518 38.7343 42.2256 38.9146 42.4572L38.9303 42.4694C38.9325 42.4738 38.9361 42.4774 38.9405 42.4796C38.945 42.4818 38.95 42.4826 38.9548 42.4817H38.9671C39.2366 42.5569 39.3538 42.3329 39.4483 42.1859C40.4801 42.2436 41.5145 42.2395 42.5458 42.1737C42.6981 42.4204 42.8521 42.6549 43.1373 42.6182C43.6413 42.4939 44.0368 42.4327 44.0543 41.2829C44.0543 41.2829 44.0018 39.3282 42.8573 39.4524C42.5861 39.4892 41.8283 39.5767 41.8283 39.5767C40.9533 39.4647 40.3006 39.4524 39.3136 39.4017C39.4063 39.2774 39.5638 38.7454 39.3678 38.5599C39.3353 38.5326 39.2976 38.512 39.2571 38.4994C39.2165 38.4868 39.1739 38.4824 39.1316 38.4864H39.1123C39.1123 38.4864 39.0966 38.4742 39.0913 38.4619V38.4497C39.0462 38.3412 39.0094 38.2294 38.9811 38.1154H38.9583M39.4273 40.9154C40.4283 40.9644 41.3733 40.9277 42.3848 40.9767C42.4464 41.0601 42.4774 41.1621 42.4727 41.2657C42.4679 41.3693 42.4276 41.468 42.3586 41.5454C42.3586 41.5577 42.3446 41.5577 42.3446 41.5577H42.3166C41.9893 41.5454 41.8021 41.5454 41.4748 41.5332C41.4748 41.5087 41.4643 41.4964 41.4643 41.4719C41.3838 41.2112 40.8273 41.2374 40.6908 41.4474V41.5087C40.6875 41.5207 40.6875 41.5334 40.6908 41.5454C40.2615 41.5727 39.8306 41.5563 39.4046 41.4964C39.2803 41.3214 39.2943 41.0012 39.4466 40.9154M21.4846 15.1152C20.8143 17.2659 21.8731 19.6407 22.6046 19.4184C23.1296 19.6529 23.4673 18.5154 23.6878 17.2782C23.8383 16.9282 23.9486 16.8949 24.0256 17.0682C24.0028 18.7254 24.1288 19.0964 24.5068 19.5917C24.6082 19.7005 24.7305 19.7877 24.8665 19.8481C25.0024 19.9085 25.1491 19.9408 25.2979 19.9431C25.4466 19.9454 25.5942 19.9176 25.732 19.8615C25.8697 19.8053 25.9946 19.7218 26.0993 19.6162C26.1536 19.5672 26.7556 18.8864 26.7556 18.8864C26.7874 18.845 26.8279 18.8111 26.8743 18.787C26.9206 18.763 26.9716 18.7493 27.0238 18.7469C27.0759 18.7446 27.128 18.7537 27.1762 18.7735C27.2245 18.7934 27.2679 18.8236 27.3033 18.8619C27.4976 19.0597 27.4783 19.4184 27.9018 19.6529C28.1255 19.7403 28.3705 19.7576 28.6043 19.7026C28.838 19.6476 29.0496 19.5229 29.2108 19.3449C29.4523 18.8864 29.5048 18.7254 29.6151 18.5522C29.7901 18.2932 30.0806 18.4052 30.0806 18.4909C30.0543 18.6397 29.8898 18.7762 29.9966 19.0352C30.2066 19.2102 30.2538 19.0964 30.3763 19.0597C30.8033 18.8252 31.1253 17.7857 31.1253 17.7857C31.1393 17.3902 30.9503 17.4269 30.8173 17.5144C30.6581 17.6247 30.6423 17.6632 30.4813 17.7734C30.2748 17.7979 29.8688 17.9589 29.6728 17.6124C29.4646 17.1924 29.4646 16.5992 29.3036 16.1792C29.3036 16.1547 29.0358 15.5229 29.2878 15.4792C29.4121 15.5037 29.6816 15.5894 29.7271 15.3304C29.8636 15.0837 29.4418 14.3662 29.1566 14.0197C29.1056 13.945 29.0379 13.8834 28.9588 13.8396C28.8797 13.7959 28.7915 13.7712 28.7012 13.7676C28.6109 13.7641 28.521 13.7817 28.4387 13.8191C28.3564 13.8564 28.284 13.9126 28.2273 13.9829C28.0615 14.2036 27.9741 14.4734 27.9788 14.7494C27.9418 14.9286 27.9424 15.1136 27.9806 15.2925C28.0189 15.4715 28.094 15.6405 28.2011 15.7889C28.5998 16.4184 28.784 17.16 28.7261 17.9029C28.6584 18.0241 28.5593 18.1248 28.4392 18.1944C28.3191 18.2641 28.1824 18.3 28.0436 18.2984C27.8686 18.2494 27.5711 18.1619 27.4136 16.8757C27.4508 15.8628 27.3363 14.85 27.0741 13.8709C26.9393 13.4754 26.8448 13.0922 26.5176 13.7729C26.375 13.9872 26.2836 14.2312 26.2502 14.4864C26.2168 14.7416 26.2424 15.001 26.3251 15.2447C26.5767 15.9794 26.6487 16.7637 26.5351 17.5319C26.4236 17.7533 26.2924 17.9641 26.1431 18.1619C26.0485 18.2858 25.9094 18.3681 25.7552 18.3913C25.6011 18.4145 25.4439 18.3768 25.3171 18.2862C25.1755 18.2063 25.0557 18.0928 24.9681 17.9558C24.8805 17.8189 24.8279 17.6625 24.8148 17.5004C24.8731 16.6546 24.8455 15.805 24.7326 14.9647C24.5331 14.4939 24.1953 14.6672 24.0553 14.8037C23.3984 15.631 22.9706 16.6165 22.8146 17.6614C22.6221 18.3527 22.4173 18.1549 22.2756 17.8714C21.9256 17.5127 21.9046 14.6427 21.4846 15.1134" fill="white"/>
<path d="M23.7522 19.5789C23.7522 19.5912 23.7435 19.5912 23.733 19.5912V19.6034C23.6892 19.6279 23.6315 19.7154 23.516 19.8134C23.4181 19.9448 23.3483 20.095 23.3109 20.2546C23.2736 20.4142 23.2695 20.5797 23.299 20.7409C23.3077 20.8039 23.6665 21.9292 23.978 22.7324C24.2389 23.6017 24.3269 24.5138 24.237 25.4169C23.7366 26.5772 22.898 27.5597 21.8307 28.2362C21.675 28.3149 21.503 28.3559 21.3285 28.3559C21.154 28.3559 20.9819 28.3149 20.8262 28.2362V28.2239C20.7299 28.1486 20.6544 28.0499 20.6069 27.9372C20.5594 27.8245 20.5416 27.7015 20.555 27.5799C21.6305 26.9177 22.4756 25.94 22.9752 24.7799C23.2112 24.1272 23.2339 23.4164 23.04 22.7499C22.9794 22.4122 22.8383 22.0941 22.6287 21.8224C22.6287 21.8224 22.6287 21.8224 22.6287 21.8102C22.7635 21.7367 23.1117 22.0324 23.1695 21.8469C23.0683 21.3147 22.8266 20.8193 22.4695 20.4119C22.4231 20.3439 22.3619 20.2872 22.2906 20.2461C22.2192 20.205 22.1394 20.1806 22.0573 20.1747C21.9751 20.1688 21.8927 20.1816 21.8162 20.2121C21.7397 20.2425 21.6711 20.2899 21.6155 20.3507C21.3267 20.5362 21.2655 21.1924 21.4002 21.7734C21.5577 22.1934 21.983 22.2687 22.2857 23.1332V23.1454C22.3434 23.4461 22.3254 23.7565 22.2332 24.0484C21.7196 24.7631 21.1102 25.4038 20.422 25.9524L20.4097 25.9647V25.9787H20.3905V25.9647C20.3972 25.8703 20.3972 25.7756 20.3905 25.6812C20.3905 25.4344 20.4797 24.8394 20.4727 24.7292V24.7169C19.9565 25.1002 19.7727 26.2622 19.6835 26.6087C18.3678 27.4286 17.1368 28.3771 16.0085 29.4402C15.557 30.2207 19.1077 28.5249 19.5085 28.3272C19.5085 28.3272 19.519 28.3272 19.5242 28.3394C19.5993 28.5948 19.7057 28.8399 19.841 29.0692C20.0482 29.3698 20.3438 29.5987 20.6867 29.7241C21.0297 29.8495 21.4032 29.8652 21.7555 29.7692C22.9213 29.2051 23.8876 28.2992 24.5257 27.1722C24.6307 26.9972 24.8005 26.8624 24.9527 26.9972C25.3197 27.7152 25.8832 28.3141 26.5775 28.724C27.2719 29.134 28.0685 29.338 28.8745 29.3124C29.3172 28.7052 29.109 28.3972 28.927 28.2852C28.8692 28.2362 27.9697 27.8407 27.8332 27.4452C27.7475 27.0864 27.9557 26.7644 28.388 26.5159C29.6195 26.3881 30.8335 26.127 32.0087 25.7372C32.0509 25.2495 32.1858 24.7743 32.406 24.3372C32.4515 24.238 32.5221 24.1524 32.6107 24.0887C32.6107 24.0887 32.6107 24.0887 32.6107 24.0764V24.0642C32.6122 24.0561 32.6122 24.0478 32.6107 24.0397L32.406 23.9032L28.472 23.8787C28.4327 23.8632 28.3956 23.8426 28.3617 23.8174V23.7439C28.3926 23.7021 28.4362 23.6713 28.486 23.6564C29.431 23.5199 31.097 23.2119 31.2055 21.3937C31.2343 21.1889 31.2208 20.9803 31.1658 20.7809C31.1108 20.5815 31.0155 20.3955 30.8857 20.2345C30.756 20.0734 30.5946 19.9406 30.4115 19.8444C30.2284 19.7482 30.0275 19.6906 29.8212 19.6752C29.4273 19.7597 29.0816 19.9936 28.8567 20.3278C28.6318 20.6621 28.5453 21.0705 28.6155 21.4672C28.5822 21.7034 28.6925 22.1847 28.472 22.2337C27.023 22.3947 25.4445 23.4097 25.3867 24.1394H25.3675L25.357 24.1517H25.3377L25.3202 24.1394C25.2462 24.0938 25.188 24.0265 25.1536 23.9467C25.1192 23.8668 25.1101 23.7783 25.1277 23.6932C25.0614 22.3767 24.7223 21.0883 24.132 19.9097C23.9325 19.6752 23.8415 19.5877 23.782 19.5754H23.7575M29.5097 21.1959C29.6195 21.1846 29.7296 21.2153 29.8177 21.2817C29.8871 21.3167 29.946 21.3695 29.9884 21.4347C30.0308 21.4998 30.0552 21.575 30.0592 21.6527V21.6999L30.0347 21.7244C29.9577 21.8102 29.7897 21.7979 29.6217 21.6859C29.557 21.6504 29.5015 21.6003 29.4595 21.5395C29.4176 21.4787 29.3905 21.409 29.3802 21.3359V21.3219C29.3802 21.2974 29.3907 21.2852 29.3977 21.2852L29.4082 21.2607C29.4082 21.2484 29.4082 21.2484 29.4275 21.2362C29.4396 21.224 29.454 21.2144 29.47 21.2081C29.486 21.2018 29.5031 21.1988 29.5202 21.1994M25.861 24.9339H25.8995C26.4417 25.0489 26.9925 25.1191 27.5462 25.1439C28.003 25.1807 28.2287 25.5762 27.8017 25.7494C27.3747 25.9227 26.974 26.0347 26.974 26.7277C27.0318 26.9212 27.0318 27.1274 26.974 27.3209C26.974 27.3332 26.9635 27.3454 26.9565 27.3454V27.3699H26.9442L26.925 27.3822C26.9239 27.3856 26.9218 27.3886 26.919 27.3908C26.9162 27.393 26.9128 27.3942 26.9092 27.3944C26.8042 27.4067 26.659 27.2842 26.547 27.2334C26.2457 27.0262 25.9924 26.7569 25.804 26.4436C25.6157 26.1302 25.4966 25.7802 25.455 25.4169C25.4497 25.3582 25.4562 25.2991 25.474 25.2429C25.4918 25.1867 25.5205 25.1347 25.5586 25.0897C25.5968 25.0448 25.6434 25.0079 25.6959 24.9811C25.7484 24.9544 25.8057 24.9383 25.8645 24.9339M13.1945 15.1392C13.6512 15.3737 14.5 15.2757 14.465 14.4584C14.4614 14.3305 14.455 14.2028 14.4457 14.0752C14.3565 13.8284 14.0957 13.8774 14.0432 14.1382C14.024 14.2117 14.0712 14.3482 14.0082 14.3972C13.9452 14.4462 13.8245 14.4094 13.8332 14.1872C13.8288 14.1155 13.8032 14.0466 13.7597 13.9894C13.7461 13.9742 13.7288 13.9629 13.7095 13.9564C13.6901 13.95 13.6695 13.9487 13.6495 13.9527C13.5882 13.9649 13.5882 13.9772 13.5602 14.0384C13.5385 14.0979 13.5267 14.1606 13.5252 14.2239C13.5147 14.3097 13.4832 14.3359 13.4307 14.3482C13.3782 14.3604 13.3905 14.3604 13.338 14.3237C13.3135 14.2852 13.2715 14.2729 13.2715 14.2117C13.2703 14.1453 13.2633 14.0791 13.2505 14.0139C13.2221 13.9771 13.1819 13.9512 13.1367 13.9404C12.8865 13.9404 12.8707 14.2607 12.8865 14.3849C12.8655 14.4094 12.8585 14.9782 13.1945 15.1392Z" fill="white"/>
<path d="M26.4894 21.4713C26.9427 21.7075 28.0207 21.571 27.7617 20.7713C27.7588 20.6431 27.7495 20.5152 27.7337 20.388C27.6444 20.1413 27.3942 20.2025 27.3329 20.451C27.3189 20.5368 27.3679 20.6733 27.3032 20.7223C27.2384 20.7713 27.1177 20.7223 27.1282 20.5C27.1236 20.432 27.0979 20.3672 27.0547 20.3145C27.0415 20.3008 27.0253 20.2903 27.0074 20.2839C26.9895 20.2776 26.9703 20.2754 26.9514 20.2778C26.8919 20.29 26.8919 20.3023 26.8569 20.3635C26.8378 20.4236 26.8266 20.486 26.8237 20.549C26.8237 20.6365 26.7869 20.661 26.7327 20.6733C26.6784 20.6855 26.6942 20.6855 26.6417 20.6488C26.5892 20.612 26.5752 20.5998 26.5752 20.5368C26.5775 20.4696 26.5674 20.4025 26.5454 20.339C26.5197 20.301 26.4801 20.2746 26.4352 20.2655C26.1902 20.2655 26.1762 20.5858 26.1849 20.71C26.1709 20.7223 26.1604 21.291 26.4964 21.4643M34.2419 18.8498C34.6934 19.0843 35.5457 18.974 35.5107 18.1498C35.5107 18.0885 35.4967 17.8418 35.4914 17.7665C35.3952 17.532 35.1414 17.581 35.0889 17.8418C35.0679 17.9153 35.1152 18.0518 35.0487 18.0885C35.0154 18.1375 34.8737 18.113 34.8737 17.8785C34.8649 17.8078 34.8397 17.7401 34.8002 17.6808C34.7685 17.6684 34.7342 17.6642 34.7004 17.6685C34.6409 17.6685 34.6409 17.6808 34.6042 17.742C34.5839 17.8061 34.5721 17.8726 34.5692 17.9398C34.5692 18.015 34.5359 18.0395 34.4782 18.0518C34.4204 18.064 34.4309 18.064 34.3907 18.0273C34.3713 18.0155 34.355 17.9991 34.3434 17.9796C34.3318 17.96 34.3252 17.938 34.3242 17.9153C34.322 17.8444 34.312 17.7739 34.2944 17.7053C34.2617 17.6811 34.2241 17.6643 34.1842 17.6563C33.9374 17.6563 33.9164 17.9765 33.9339 18.0885C33.9164 18.113 33.9059 18.6818 34.2437 18.8428M38.2547 25.4175C37.9834 25.8669 37.8185 26.3724 37.7727 26.8954C37.7269 27.4183 37.8014 27.9448 37.9904 28.4345C38.1595 28.9525 38.5051 29.3948 38.9669 29.684C39.035 29.7581 39.1198 29.8149 39.2142 29.8497C39.3086 29.8845 39.4099 29.8963 39.5098 29.8842C39.6097 29.8721 39.7053 29.8363 39.7886 29.7799C39.8719 29.7235 39.9406 29.648 39.9889 29.5598C40.4509 29.0155 40.4632 27.6435 40.6767 27.3705C40.8342 26.863 41.2139 26.9505 41.3994 27.1728C41.5678 27.4358 41.7948 27.6562 42.0627 27.8168C42.1505 27.9209 42.2583 28.0065 42.3796 28.0686C42.5009 28.1306 42.6334 28.1679 42.7693 28.1781C42.9052 28.1884 43.0418 28.1715 43.171 28.1284C43.3003 28.0852 43.4197 28.0168 43.5222 27.927C43.9067 27.6833 44.1849 27.3032 44.3009 26.863C44.4703 24.7817 44.4896 22.6909 44.3587 20.6068C44.3359 20.458 43.9107 18.0343 43.9107 18.008C43.9107 17.9818 43.8494 16.7725 43.8057 16.4873C43.7952 16.3648 43.7707 16.3263 43.8809 16.3403C43.9964 16.4628 44.0069 16.475 44.0804 16.4995C44.1959 16.5258 44.3009 16.3018 44.2327 16.0918C43.8827 15.3498 43.5099 14.5955 43.1494 13.8658C43.0672 13.7555 42.9517 13.6558 42.8099 13.878C42.7243 13.9666 42.657 14.0713 42.6119 14.186C42.5669 14.3008 42.5449 14.4233 42.5474 14.5465C42.5807 15.0715 42.6629 15.6228 42.6927 16.1548C42.8379 17.056 42.9814 17.9713 43.1267 18.8865C43.2614 20.829 43.3017 22.6088 43.4347 24.5513C43.4658 25.2533 43.3043 25.9505 42.9674 26.5673C42.9674 26.5673 42.6507 26.7895 42.4319 26.555C42.1286 26.186 41.8625 25.788 41.6374 25.3668C41.3119 25.0343 41.0949 25.12 40.8639 25.3668C40.2929 26.2621 39.8383 27.2265 39.5112 28.2368C39.3957 28.4345 39.0824 28.6078 38.7359 28.2245C38.2783 27.3673 38.1095 26.3853 38.2547 25.4245M34.4467 14.0758C34.6682 14.2654 34.8388 14.5073 34.943 14.7796C35.0472 15.0519 35.0817 15.346 35.0434 15.635C34.9612 16.1915 34.7494 16.8093 34.5919 16.7235C34.4344 16.6378 34.7039 16.167 34.5482 15.6595C34.4519 15.3253 33.9024 14.732 33.9602 14.5465C33.9367 14.4793 33.9329 14.4067 33.9493 14.3374C33.9657 14.2681 34.0016 14.205 34.0528 14.1554C34.104 14.1059 34.1683 14.0721 34.2381 14.058C34.3079 14.0438 34.3803 14.05 34.4467 14.0758Z" fill="white"/>
<path d="M39.5634 25.9737C39.6006 25.1561 39.572 24.3368 39.4777 23.5237C39.4532 22.8815 38.8267 17.5737 38.6937 17.0802C38.5397 16.1545 39.3079 16.9577 39.2187 16.4135C38.9562 15.7327 38.2964 14.7317 38.0917 14.1385C37.9604 13.8777 38.0147 13.6555 37.7417 14.0755C37.5022 14.8259 37.4171 15.617 37.4914 16.4012C38.2761 20.0771 38.6935 23.8218 38.7374 27.5802C39.0507 27.5802 39.4129 26.777 39.5704 25.9737M44.5929 20.4385C44.9727 20.6607 45.1862 21.8105 45.1459 22.1447C45.0742 22.7502 44.8782 23.4065 44.7364 23.319C44.5947 23.2315 44.7662 22.4177 44.6927 22.1692C44.6034 21.8105 44.1047 21.156 44.1554 20.9582C44.0539 20.5487 44.3759 20.3772 44.5929 20.4332M18.9799 23.8702C19.3299 24.019 19.5399 24.873 19.5049 25.1197C19.4332 25.5642 19.2459 26.035 19.1129 25.9947C18.9799 25.9545 19.1444 25.3262 19.0692 25.1407C19.0429 24.684 18.5442 24.4407 18.5617 24.25C18.4672 23.8912 18.7612 23.83 18.9852 23.879M9.50891 13.792C10.0339 13.967 10.0619 14.8297 10.0339 15.0905C9.96216 15.5472 9.7749 16.0425 9.6384 15.9812C9.5019 15.92 9.63841 15.3005 9.56491 15.1062C9.48966 14.821 9.0399 14.3397 9.0994 14.191C8.9979 13.8812 9.29715 13.7325 9.51415 13.7955M19.8322 17.873C19.6266 18.0346 19.4837 18.2626 19.4278 18.518C19.372 18.7734 19.4066 19.0403 19.5259 19.273C19.5949 19.376 19.6957 19.4536 19.8129 19.494C19.9301 19.5345 20.0573 19.5355 20.1752 19.497C20.5689 19.5582 20.8017 18.6675 20.8017 18.6675C20.8017 18.6675 20.8139 18.4207 20.3519 18.8897C20.1524 18.9405 20.1279 18.853 20.0772 18.7287C20.0306 18.4974 20.0512 18.2575 20.1367 18.0375C20.2084 17.8135 20.0579 17.7155 19.8322 17.8765M22.8369 13.4577C22.6618 13.6 22.5174 13.7764 22.4124 13.9761C22.3074 14.1758 22.2441 14.3948 22.2262 14.6197C22.2104 14.9172 22.1597 14.9172 22.3364 15.115C22.4677 15.325 22.5972 15.3005 22.8527 15.1395C22.9183 15.0934 22.9742 15.0347 23.0168 14.9668C23.0595 14.8989 23.0882 14.8231 23.1012 14.744C23.1642 14.394 22.7792 14.905 22.7267 14.5217C22.6444 14.163 22.8894 14.0265 23.1257 13.6677C23.1257 13.4332 23.1257 13.2722 22.8369 13.4577ZM25.2642 13.9407C25.1679 14.3841 25.1093 14.8349 25.0892 15.2882C25.0174 15.6225 25.4059 15.7695 25.5757 15.3372C25.7506 14.8659 25.8435 14.3681 25.8504 13.8655C25.7734 13.358 25.4654 13.3842 25.2642 13.9407ZM40.5417 22.6837C40.5977 22.633 42.6942 20.9512 42.6942 20.9512C42.9094 20.8655 42.8692 21.8262 42.7659 21.8052C42.1301 22.5115 41.3778 23.1035 40.5417 23.5552C40.4402 23.6305 40.3352 22.9007 40.5417 22.6907M42.4579 22.6715C42.8324 22.8815 42.9829 24.0925 42.9374 24.4215C42.9514 25.0655 42.5874 25.5835 42.4369 25.51C42.2864 25.4365 42.4527 24.7067 42.3809 24.446C42.2187 24.0521 42.1013 23.6411 42.0309 23.221C41.9259 22.8115 42.2304 22.5892 42.4562 22.6645M29.9647 27.9145C30.1371 27.6954 30.3378 27.5 30.5614 27.3335C30.6288 27.2996 30.7057 27.2897 30.7794 27.3053C30.8532 27.3208 30.9195 27.361 30.9674 27.4192C31.0042 27.6432 30.8379 27.8655 30.8904 28.1735C30.9324 28.2977 30.9674 28.4465 31.1704 28.3852C31.3028 28.2682 31.4577 28.1793 31.6256 28.1239C31.7934 28.0685 31.9708 28.0479 32.1469 28.0632C32.4094 28.0632 32.4112 28.5567 32.2554 28.5567C31.7935 28.6838 31.3465 28.8598 30.9219 29.0817C30.8624 29.1245 30.7884 29.1421 30.7159 29.1307C30.6435 29.1192 30.5785 29.0796 30.5352 29.0205C30.4945 28.9568 30.47 28.8842 30.4636 28.8089C30.4572 28.7336 30.4691 28.6579 30.4984 28.5882C30.5159 28.3397 30.4267 28.205 30.2394 28.2172C30.0994 28.3152 29.9787 28.3642 29.9087 28.1927C29.8842 28.0562 29.8737 27.9827 29.9647 27.9075M44.6699 28.5707C44.7294 28.6318 44.7628 28.7138 44.7628 28.7991C44.7628 28.8844 44.7294 28.9664 44.6699 29.0275C44.5194 29.1885 44.4197 29.262 44.2692 29.423C44.2027 29.5595 44.1589 29.7572 44.3689 29.8185C44.7592 29.9427 45.6692 29.2935 45.6692 29.262C45.7179 29.2177 45.7521 29.1598 45.7674 29.0958C45.7827 29.0318 45.7783 28.9647 45.7549 28.9032C45.6692 28.793 45.4784 28.8542 45.3507 28.8542C45.2842 28.8542 45.0829 28.8052 45.1757 28.6197C45.2429 28.5093 45.2981 28.392 45.3402 28.2697C45.3979 28.1087 45.3524 28.0107 45.1232 27.9197C44.9378 27.8891 44.7486 27.8891 44.5632 27.9197C44.4284 27.9565 44.3882 28.0317 44.3567 28.205C44.3654 28.4762 44.5159 28.464 44.6734 28.576" fill="white"/>
</svg>
