<svg width="57" height="57" viewBox="0 0 57 57" fill="none" xmlns="http://www.w3.org/2000/svg">
<g clip-path="url(#clip0_283_3291)">
<path d="M28.7227 56.8867C44.1866 56.8867 56.7227 44.3507 56.7227 28.8867C56.7227 13.4227 44.1866 0.886719 28.7227 0.886719C13.2587 0.886719 0.722656 13.4227 0.722656 28.8867C0.722656 44.3507 13.2587 56.8867 28.7227 56.8867Z" fill="#F0F0F0"/>
<path d="M17.7661 19.1476H54.9809C51.0249 8.48522 40.7615 0.886719 28.7226 0.886719C20.9905 0.886719 13.9912 4.0213 8.92456 9.08864L17.7661 19.1476Z" fill="black"/>
<path d="M17.7661 38.626H54.9809C51.0249 49.2884 40.7615 56.8869 28.7226 56.8869C20.9905 56.8869 13.9912 53.7523 8.92456 48.685L17.7661 38.626Z" fill="#6DA544"/>
<path d="M8.92359 9.08789C-2.01107 20.0225 -2.01107 37.7512 8.92359 48.686L28.7226 28.887L8.92359 9.08789Z" fill="#D80027"/>
</g>
<defs>
<clipPath id="clip0_283_3291">
<rect width="56" height="56" fill="white" transform="translate(0.722656 0.886719)"/>
</clipPath>
</defs>
</svg>
