<svg width="57" height="57" viewBox="0 0 57 57" fill="none" xmlns="http://www.w3.org/2000/svg">
<path d="M28.7234 56.8863C44.1867 56.8863 56.7222 44.3508 56.7222 28.8875C56.7222 13.4242 44.1867 0.888672 28.7234 0.888672C13.2601 0.888672 0.724609 13.4242 0.724609 28.8875C0.724609 44.3508 13.2601 56.8863 28.7234 56.8863Z" fill="white"/>
<path d="M55.1219 19.5508H37.8701C38.6195 25.5321 38.6239 32.1225 37.8847 38.1112H55.1586C56.1944 35.1461 56.7227 32.0276 56.7214 28.8868C56.7219 25.6116 56.1546 22.4709 55.1219 19.5508Z" fill="#EFECEC"/>
<path d="M37.8702 19.5513H55.1216C55.1192 19.543 55.1162 19.5349 55.1127 19.527C51.5295 9.42276 42.3115 1.98876 31.2363 1.00195C35.5226 3.35129 36.7746 10.7946 37.8702 19.5513Z" fill="#429945"/>
<path d="M31.2373 56.7704C42.3323 55.7818 51.5631 48.3222 55.1326 38.1909C55.1419 38.1639 55.1499 38.1373 55.1595 38.1113H37.8852C36.7981 46.9154 35.5408 54.4112 31.2373 56.7704Z" fill="#0B0B0B"/>
<path d="M0.722656 28.8868C0.722656 32.1199 1.27795 35.2221 2.28545 38.1112H39.3263C40.0664 32.1221 40.0611 25.5321 39.3126 19.5508H2.32269C1.28989 22.471 0.722656 25.6117 0.722656 28.8868Z" fill="#EFEFEF"/>
<path d="M2.33113 19.5266C2.32844 19.5348 2.32549 19.543 2.32227 19.551H39.3123C38.2159 10.7942 35.5226 3.35097 31.2368 1.00163C30.4079 0.928215 29.5697 0.886719 28.7218 0.886719C16.5413 0.886601 6.1832 8.66581 2.33113 19.5266Z" fill="#49A948"/>
<path d="M39.326 38.1113H2.28516C2.2945 38.1375 2.30324 38.1639 2.31211 38.1909C6.14881 49.0795 16.5218 56.8862 28.7218 56.8862C29.5698 56.8862 30.408 56.8446 31.2369 56.7704C35.5408 54.4114 38.2389 46.9155 39.326 38.1113Z" fill="#151515"/>
<path d="M0.722656 28.8868C0.722656 40.5419 7.84714 50.5318 17.9776 54.7463V3.02637C7.84714 7.24008 0.722656 17.2299 0.722656 28.8868Z" fill="#E73B36"/>
</svg>
