<svg width="57" height="57" viewBox="0 0 57 57" fill="none" xmlns="http://www.w3.org/2000/svg">
<path fill-rule="evenodd" clip-rule="evenodd" d="M28.7227 0.886719C13.2587 0.886719 0.722656 13.4227 0.722656 28.8867C0.722656 44.3507 13.2587 56.8867 28.7227 56.8867C44.1867 56.8867 56.7227 44.3507 56.7227 28.8867C56.7227 13.4227 44.1867 0.886719 28.7227 0.886719Z" fill="#E92B2B"/>
<path fill-rule="evenodd" clip-rule="evenodd" d="M52.9769 42.8867H4.46878C5.98959 45.5142 7.92572 47.8781 10.202 49.8867H47.2437C49.52 47.8781 51.4561 45.5142 52.9769 42.8867ZM56.7227 28.8867H0.722656C0.722656 31.3038 1.02891 33.6493 1.60478 35.8867H55.8405C56.4164 33.6493 56.7227 31.3038 56.7227 28.8867ZM52.9774 14.8867H4.46928C3.20059 17.0789 2.23711 19.4339 1.60553 21.8867H55.8413C55.2097 19.4339 54.2462 17.0788 52.9774 14.8867ZM47.2408 7.88672H10.1992C15.1352 3.53022 21.6189 0.886719 28.72 0.886719C35.8212 0.886719 42.3048 3.53022 47.2408 7.88672Z" fill="#FBFBFB"/>
<path fill-rule="evenodd" clip-rule="evenodd" d="M25.9234 1.02441V28.8863H0.722656C0.722656 14.367 11.7738 2.42879 25.9234 1.02441Z" fill="#2A2FAF"/>
<path fill-rule="evenodd" clip-rule="evenodd" d="M4.9924 14.0215H6.18765L4.5419 15.2172L5.17053 17.152L3.78515 16.1455C4.15644 15.4202 4.55924 14.7115 4.9924 14.0215ZM1.38678 22.8032C1.41504 22.6756 1.44421 22.5483 1.47428 22.4211H2.89503L3.52378 20.4863L4.15228 22.4211H6.18665L4.54078 23.6168L5.16953 25.5516L3.52365 24.3558L1.8779 25.5516L2.50653 23.6168L1.38678 22.8032ZM10.697 7.46009C11.4769 6.80325 12.2918 6.18934 13.1384 5.62109H14.5862L12.9403 6.81684L13.5689 8.75159L11.9232 7.55584L10.2774 8.75159L10.697 7.46009Z" fill="#FBFBFB"/>
</svg>
