<svg width="155" height="101" viewBox="0 0 155 101" fill="none" xmlns="http://www.w3.org/2000/svg">
<g opacity="0.3">
<circle cx="2.27761" cy="2.78909" r="2.27761" fill="#7562E0"/>
<circle cx="15.9436" cy="2.78909" r="2.27761" fill="#7562E0"/>
<circle cx="29.6087" cy="2.78909" r="2.27761" fill="#7562E0"/>
<circle cx="43.2747" cy="2.78909" r="2.27761" fill="#7562E0"/>
<circle cx="56.9407" cy="2.78909" r="2.27761" fill="#7562E0"/>
<circle cx="70.6057" cy="2.78909" r="2.27761" fill="#7562E0"/>
<circle cx="84.2718" cy="2.78909" r="2.27761" fill="#7562E0"/>
<circle cx="97.9378" cy="2.78909" r="2.27761" fill="#7562E0"/>
<circle cx="111.603" cy="2.78909" r="2.27761" fill="#7562E0"/>
<circle cx="125.269" cy="2.78909" r="2.27761" fill="#7562E0"/>
<circle cx="138.935" cy="2.78909" r="2.27761" fill="#7562E0"/>
<circle cx="152.6" cy="2.78909" r="2.27761" fill="#7562E0"/>
<circle cx="2.27761" cy="16.4549" r="2.27761" fill="#7562E0"/>
<circle cx="15.9436" cy="16.4549" r="2.27761" fill="#7562E0"/>
<circle cx="29.6087" cy="16.4549" r="2.27761" fill="#7562E0"/>
<circle cx="43.2747" cy="16.4549" r="2.27761" fill="#7562E0"/>
<circle cx="56.9407" cy="16.4549" r="2.27761" fill="#7562E0"/>
<circle cx="70.6057" cy="16.4549" r="2.27761" fill="#7562E0"/>
<circle cx="84.2718" cy="16.4549" r="2.27761" fill="#7562E0"/>
<circle cx="97.9378" cy="16.4549" r="2.27761" fill="#7562E0"/>
<circle cx="111.603" cy="16.4549" r="2.27761" fill="#7562E0"/>
<circle cx="125.269" cy="16.4549" r="2.27761" fill="#7562E0"/>
<circle cx="138.935" cy="16.4549" r="2.27761" fill="#7562E0"/>
<circle cx="152.6" cy="16.4549" r="2.27761" fill="#7562E0"/>
<circle cx="2.27761" cy="30.1204" r="2.27761" fill="#7562E0"/>
<circle cx="15.9436" cy="30.1204" r="2.27761" fill="#7562E0"/>
<circle cx="29.6087" cy="30.1204" r="2.27761" fill="#7562E0"/>
<circle cx="43.2747" cy="30.1204" r="2.27761" fill="#7562E0"/>
<circle cx="56.9407" cy="30.1204" r="2.27761" fill="#7562E0"/>
<circle cx="70.6057" cy="30.1204" r="2.27761" fill="#7562E0"/>
<circle cx="84.2718" cy="30.1204" r="2.27761" fill="#7562E0"/>
<circle cx="97.9378" cy="30.1204" r="2.27761" fill="#7562E0"/>
<circle cx="111.603" cy="30.1204" r="2.27761" fill="#7562E0"/>
<circle cx="125.269" cy="30.1204" r="2.27761" fill="#7562E0"/>
<circle cx="138.935" cy="30.1204" r="2.27761" fill="#7562E0"/>
<circle cx="152.6" cy="30.1204" r="2.27761" fill="#7562E0"/>
<circle cx="2.27761" cy="43.7862" r="2.27761" fill="#7562E0"/>
<circle cx="15.9436" cy="43.7862" r="2.27761" fill="#7562E0"/>
<circle cx="29.6087" cy="43.7862" r="2.27761" fill="#7562E0"/>
<circle cx="43.2747" cy="43.7862" r="2.27761" fill="#7562E0"/>
<circle cx="56.9407" cy="43.7862" r="2.27761" fill="#7562E0"/>
<circle cx="70.6057" cy="43.7862" r="2.27761" fill="#7562E0"/>
<circle cx="84.2718" cy="43.7862" r="2.27761" fill="#7562E0"/>
<circle cx="97.9378" cy="43.7862" r="2.27761" fill="#7562E0"/>
<circle cx="111.603" cy="43.7862" r="2.27761" fill="#7562E0"/>
<circle cx="125.269" cy="43.7862" r="2.27761" fill="#7562E0"/>
<circle cx="138.935" cy="43.7862" r="2.27761" fill="#7562E0"/>
<circle cx="152.6" cy="43.7862" r="2.27761" fill="#7562E0"/>
<circle cx="2.27761" cy="57.4519" r="2.27761" fill="#7562E0"/>
<circle cx="15.9436" cy="57.4519" r="2.27761" fill="#7562E0"/>
<circle cx="29.6087" cy="57.4519" r="2.27761" fill="#7562E0"/>
<circle cx="43.2747" cy="57.4519" r="2.27761" fill="#7562E0"/>
<circle cx="56.9407" cy="57.4519" r="2.27761" fill="#7562E0"/>
<circle cx="70.6057" cy="57.4519" r="2.27761" fill="#7562E0"/>
<circle cx="84.2718" cy="57.4519" r="2.27761" fill="#7562E0"/>
<circle cx="97.9378" cy="57.4519" r="2.27761" fill="#7562E0"/>
<circle cx="111.603" cy="57.4519" r="2.27761" fill="#7562E0"/>
<circle cx="125.269" cy="57.4519" r="2.27761" fill="#7562E0"/>
<circle cx="138.935" cy="57.4519" r="2.27761" fill="#7562E0"/>
<circle cx="152.6" cy="57.4519" r="2.27761" fill="#7562E0"/>
<circle cx="2.27761" cy="71.1175" r="2.27761" fill="#7562E0"/>
<circle cx="15.9436" cy="71.1175" r="2.27761" fill="#7562E0"/>
<circle cx="29.6087" cy="71.1175" r="2.27761" fill="#7562E0"/>
<circle cx="43.2747" cy="71.1175" r="2.27761" fill="#7562E0"/>
<circle cx="56.9407" cy="71.1175" r="2.27761" fill="#7562E0"/>
<circle cx="70.6057" cy="71.1175" r="2.27761" fill="#7562E0"/>
<circle cx="84.2718" cy="71.1175" r="2.27761" fill="#7562E0"/>
<circle cx="97.9378" cy="71.1175" r="2.27761" fill="#7562E0"/>
<circle cx="111.603" cy="71.1175" r="2.27761" fill="#7562E0"/>
<circle cx="125.269" cy="71.1175" r="2.27761" fill="#7562E0"/>
<circle cx="138.935" cy="71.1175" r="2.27761" fill="#7562E0"/>
<circle cx="152.6" cy="71.1175" r="2.27761" fill="#7562E0"/>
<circle cx="2.27761" cy="84.7832" r="2.27761" fill="#7562E0"/>
<circle cx="15.9436" cy="84.7832" r="2.27761" fill="#7562E0"/>
<circle cx="29.6087" cy="84.7832" r="2.27761" fill="#7562E0"/>
<circle cx="43.2747" cy="84.7832" r="2.27761" fill="#7562E0"/>
<circle cx="56.9407" cy="84.7832" r="2.27761" fill="#7562E0"/>
<circle cx="70.6057" cy="84.7832" r="2.27761" fill="#7562E0"/>
<circle cx="84.2718" cy="84.7832" r="2.27761" fill="#7562E0"/>
<circle cx="97.9378" cy="84.7832" r="2.27761" fill="#7562E0"/>
<circle cx="111.603" cy="84.7832" r="2.27761" fill="#7562E0"/>
<circle cx="125.269" cy="84.7832" r="2.27761" fill="#7562E0"/>
<circle cx="138.935" cy="84.7832" r="2.27761" fill="#7562E0"/>
<circle cx="152.6" cy="84.7832" r="2.27761" fill="#7562E0"/>
<circle cx="2.27761" cy="98.4488" r="2.27761" fill="#7562E0"/>
<circle cx="15.9436" cy="98.4488" r="2.27761" fill="#7562E0"/>
<circle cx="29.6087" cy="98.4488" r="2.27761" fill="#7562E0"/>
<circle cx="43.2747" cy="98.4488" r="2.27761" fill="#7562E0"/>
<circle cx="56.9407" cy="98.4488" r="2.27761" fill="#7562E0"/>
<circle cx="70.6057" cy="98.4488" r="2.27761" fill="#7562E0"/>
<circle cx="84.2718" cy="98.4488" r="2.27761" fill="#7562E0"/>
<circle cx="97.9378" cy="98.4488" r="2.27761" fill="#7562E0"/>
<circle cx="111.603" cy="98.4488" r="2.27761" fill="#7562E0"/>
<circle cx="125.269" cy="98.4488" r="2.27761" fill="#7562E0"/>
<circle cx="138.935" cy="98.4488" r="2.27761" fill="#7562E0"/>
<circle cx="152.6" cy="98.4488" r="2.27761" fill="#7562E0"/>
</g>
</svg>
