<svg width="386" height="301" viewBox="0 0 386 301" fill="none" xmlns="http://www.w3.org/2000/svg">
<circle cx="3.99976" cy="3.5" r="3.5" fill="#E7E7E7"/>
<circle cx="57.9998" cy="3.5" r="3.5" fill="#E7E7E7"/>
<circle cx="112" cy="3.5" r="3.5" fill="#E7E7E7"/>
<circle cx="166" cy="3.5" r="3.5" fill="#E7E7E7"/>
<circle cx="220" cy="3.5" r="3.5" fill="#E7E7E7"/>
<circle cx="274" cy="3.5" r="3.5" fill="#E7E7E7"/>
<circle cx="328" cy="3.5" r="3.5" fill="#E7E7E7"/>
<circle cx="382" cy="3.5" r="3.5" fill="#E7E7E7"/>
<circle cx="3.99976" cy="45.5" r="3.5" fill="#E7E7E7"/>
<circle cx="57.9998" cy="45.5" r="3.5" fill="#E7E7E7"/>
<circle cx="112" cy="45.5" r="3.5" fill="#E7E7E7"/>
<circle cx="166" cy="45.5" r="3.5" fill="#E7E7E7"/>
<circle cx="220" cy="45.5" r="3.5" fill="#E7E7E7"/>
<circle cx="274" cy="45.5" r="3.5" fill="#E7E7E7"/>
<circle cx="328" cy="45.5" r="3.5" fill="#E7E7E7"/>
<circle cx="382" cy="45.5" r="3.5" fill="#E7E7E7"/>
<circle cx="3.99976" cy="87.5" r="3.5" fill="#E7E7E7"/>
<circle cx="57.9998" cy="87.5" r="3.5" fill="#E7E7E7"/>
<circle cx="112" cy="87.5" r="3.5" fill="#E7E7E7"/>
<circle cx="166" cy="87.5" r="3.5" fill="#E7E7E7"/>
<circle cx="220" cy="87.5" r="3.5" fill="#E7E7E7"/>
<circle cx="274" cy="87.5" r="3.5" fill="#E7E7E7"/>
<circle cx="328" cy="87.5" r="3.5" fill="#E7E7E7"/>
<circle cx="382" cy="87.5" r="3.5" fill="#E7E7E7"/>
<circle cx="3.99976" cy="129.5" r="3.5" fill="#E7E7E7"/>
<circle cx="57.9998" cy="129.5" r="3.5" fill="#E7E7E7"/>
<circle cx="112" cy="129.5" r="3.5" fill="#E7E7E7"/>
<circle cx="166" cy="129.5" r="3.5" fill="#E7E7E7"/>
<circle cx="220" cy="129.5" r="3.5" fill="#E7E7E7"/>
<circle cx="274" cy="129.5" r="3.5" fill="#E7E7E7"/>
<circle cx="328" cy="129.5" r="3.5" fill="#E7E7E7"/>
<circle cx="382" cy="129.5" r="3.5" fill="#E7E7E7"/>
<circle cx="3.99976" cy="171.5" r="3.5" fill="#E7E7E7"/>
<circle cx="57.9998" cy="171.5" r="3.5" fill="#E7E7E7"/>
<circle cx="112" cy="171.5" r="3.5" fill="#E7E7E7"/>
<circle cx="166" cy="171.5" r="3.5" fill="#E7E7E7"/>
<circle cx="220" cy="171.5" r="3.5" fill="#E7E7E7"/>
<circle cx="274" cy="171.5" r="3.5" fill="#E7E7E7"/>
<circle cx="328" cy="171.5" r="3.5" fill="#E7E7E7"/>
<circle cx="382" cy="171.5" r="3.5" fill="#E7E7E7"/>
<circle cx="3.99976" cy="213.5" r="3.5" fill="#E7E7E7"/>
<circle cx="57.9998" cy="213.5" r="3.5" fill="#E7E7E7"/>
<circle cx="112" cy="213.5" r="3.5" fill="#E7E7E7"/>
<circle cx="166" cy="213.5" r="3.5" fill="#E7E7E7"/>
<circle cx="220" cy="213.5" r="3.5" fill="#E7E7E7"/>
<circle cx="274" cy="213.5" r="3.5" fill="#E7E7E7"/>
<circle cx="328" cy="213.5" r="3.5" fill="#E7E7E7"/>
<circle cx="382" cy="213.5" r="3.5" fill="#E7E7E7"/>
<circle cx="3.99976" cy="255.5" r="3.5" fill="#E7E7E7"/>
<circle cx="57.9998" cy="255.5" r="3.5" fill="#E7E7E7"/>
<circle cx="112" cy="255.5" r="3.5" fill="#E7E7E7"/>
<circle cx="166" cy="255.5" r="3.5" fill="#E7E7E7"/>
<circle cx="220" cy="255.5" r="3.5" fill="#E7E7E7"/>
<circle cx="274" cy="255.5" r="3.5" fill="#E7E7E7"/>
<circle cx="328" cy="255.5" r="3.5" fill="#E7E7E7"/>
<circle cx="382" cy="255.5" r="3.5" fill="#E7E7E7"/>
<circle cx="3.99976" cy="297.5" r="3.5" fill="#E7E7E7"/>
<circle cx="57.9998" cy="297.5" r="3.5" fill="#E7E7E7"/>
<circle cx="112" cy="297.5" r="3.5" fill="#E7E7E7"/>
<circle cx="166" cy="297.5" r="3.5" fill="#E7E7E7"/>
<circle cx="220" cy="297.5" r="3.5" fill="#E7E7E7"/>
<circle cx="274" cy="297.5" r="3.5" fill="#E7E7E7"/>
<circle cx="328" cy="297.5" r="3.5" fill="#E7E7E7"/>
<circle cx="382" cy="297.5" r="3.5" fill="#E7E7E7"/>
</svg>
