<svg width="279" height="218" viewBox="0 0 279 218" fill="none" xmlns="http://www.w3.org/2000/svg">
<g filter="url(#filter0_d_283_933)">
<rect x="33" y="24" width="213" height="152" rx="16" fill="white"/>
<path d="M50.1254 49L47.3413 38.8182H48.5941L50.7219 47.1108H50.8214L52.989 38.8182H54.381L56.5487 47.1108H56.6481L58.7759 38.8182H60.0288L57.2447 49H55.9719L53.7248 40.8864H53.6452L51.3981 49H50.1254ZM63.8967 49.1591C63.1609 49.1591 62.5262 48.9967 61.9925 48.6719C61.4622 48.3438 61.0529 47.8864 60.7646 47.2997C60.4795 46.7098 60.337 46.0237 60.337 45.2415C60.337 44.4593 60.4795 43.7699 60.7646 43.1733C61.0529 42.5734 61.454 42.1061 61.9677 41.7713C62.4847 41.4332 63.0879 41.2642 63.7773 41.2642C64.1751 41.2642 64.5678 41.3305 64.9556 41.4631C65.3434 41.5956 65.6964 41.8111 66.0146 42.1094C66.3327 42.4044 66.5863 42.7955 66.7752 43.2827C66.9641 43.7699 67.0586 44.3698 67.0586 45.0824V45.5795H61.1722V44.5653H65.8654C65.8654 44.1345 65.7792 43.75 65.6069 43.4119C65.4379 43.0739 65.1959 42.8071 64.881 42.6115C64.5695 42.416 64.2016 42.3182 63.7773 42.3182C63.31 42.3182 62.9057 42.4342 62.5643 42.6662C62.2262 42.8949 61.966 43.1932 61.7837 43.5611C61.6014 43.929 61.5103 44.3234 61.5103 44.7443V45.4205C61.5103 45.9972 61.6097 46.486 61.8086 46.8871C62.0108 47.2848 62.2908 47.5881 62.6488 47.7969C63.0067 48.0024 63.4227 48.1051 63.8967 48.1051C64.2049 48.1051 64.4833 48.062 64.7319 47.9759C64.9838 47.8864 65.2009 47.7538 65.3832 47.5781C65.5655 47.3991 65.7063 47.1771 65.8058 46.9119L66.9393 47.2301C66.82 47.6146 66.6194 47.9527 66.3377 48.2443C66.056 48.5327 65.708 48.758 65.2937 48.9205C64.8794 49.0795 64.4137 49.1591 63.8967 49.1591ZM72.0451 49.1591C71.3093 49.1591 70.6746 48.9967 70.141 48.6719C69.6107 48.3438 69.2013 47.8864 68.913 47.2997C68.628 46.7098 68.4854 46.0237 68.4854 45.2415C68.4854 44.4593 68.628 43.7699 68.913 43.1733C69.2013 42.5734 69.6024 42.1061 70.1161 41.7713C70.6332 41.4332 71.2364 41.2642 71.9258 41.2642C72.3235 41.2642 72.7163 41.3305 73.104 41.4631C73.4918 41.5956 73.8448 41.8111 74.163 42.1094C74.4812 42.4044 74.7347 42.7955 74.9237 43.2827C75.1126 43.7699 75.207 44.3698 75.207 45.0824V45.5795H69.3207V44.5653H74.0138C74.0138 44.1345 73.9277 43.75 73.7553 43.4119C73.5863 43.0739 73.3443 42.8071 73.0295 42.6115C72.7179 42.416 72.35 42.3182 71.9258 42.3182C71.4585 42.3182 71.0541 42.4342 70.7127 42.6662C70.3746 42.8949 70.1145 43.1932 69.9322 43.5611C69.7499 43.929 69.6587 44.3234 69.6587 44.7443V45.4205C69.6587 45.9972 69.7582 46.486 69.957 46.8871C70.1592 47.2848 70.4393 47.5881 70.7972 47.7969C71.1552 48.0024 71.5711 48.1051 72.0451 48.1051C72.3533 48.1051 72.6317 48.062 72.8803 47.9759C73.1322 47.8864 73.3493 47.7538 73.5316 47.5781C73.7139 47.3991 73.8548 47.1771 73.9542 46.9119L75.0877 47.2301C74.9684 47.6146 74.7679 47.9527 74.4862 48.2443C74.2044 48.5327 73.8564 48.758 73.4421 48.9205C73.0278 49.0795 72.5621 49.1591 72.0451 49.1591ZM78.0856 46.2159L78.0657 44.7642H78.3043L81.6452 41.3636H83.0969L79.5373 44.9631H79.4379L78.0856 46.2159ZM76.9918 49V38.8182H78.1651V49H76.9918ZM81.8441 49L78.8612 45.2216L79.6964 44.4062L83.3356 49H81.8441ZM85.7804 38.8182V49H84.6071V38.8182H85.7804ZM88.685 51.8636C88.4862 51.8636 88.3088 51.8471 88.1531 51.8139C87.9973 51.7841 87.8896 51.7543 87.8299 51.7244L88.1282 50.6903C88.4132 50.7633 88.6651 50.7898 88.8839 50.7699C89.1026 50.75 89.2965 50.6522 89.4656 50.4766C89.6379 50.3042 89.7953 50.0241 89.9379 49.6364L90.1566 49.0398L87.3327 41.3636H88.6055L90.7134 47.4489H90.793L92.9009 41.3636H94.1737L90.9322 50.1136C90.7863 50.508 90.6057 50.8345 90.3903 51.093C90.1748 51.3549 89.9246 51.5488 89.6396 51.6747C89.3578 51.8007 89.0397 51.8636 88.685 51.8636ZM106.779 42C106.67 41.6652 106.526 41.3653 106.347 41.1001C106.171 40.8317 105.96 40.603 105.715 40.4141C105.473 40.2251 105.198 40.081 104.89 39.9815C104.582 39.8821 104.244 39.8324 103.876 39.8324C103.272 39.8324 102.724 39.9882 102.23 40.2997C101.736 40.6113 101.344 41.0703 101.052 41.6768C100.76 42.2834 100.614 43.0275 100.614 43.9091C100.614 44.7907 100.762 45.5348 101.057 46.1413C101.352 46.7479 101.751 47.2069 102.255 47.5185C102.759 47.83 103.326 47.9858 103.955 47.9858C104.539 47.9858 105.052 47.8615 105.496 47.6129C105.944 47.361 106.292 47.0064 106.54 46.549C106.792 46.0883 106.918 45.5464 106.918 44.9233L107.296 45.0028H104.234V43.9091H108.112V45.0028C108.112 45.8414 107.933 46.5705 107.575 47.1903C107.22 47.8101 106.729 48.2907 106.103 48.6321C105.48 48.9702 104.764 49.1392 103.955 49.1392C103.054 49.1392 102.262 48.9271 101.579 48.5028C100.899 48.0786 100.369 47.4754 99.9879 46.6932C99.6101 45.911 99.4212 44.983 99.4212 43.9091C99.4212 43.1037 99.5289 42.3795 99.7443 41.7365C99.9631 41.0902 100.271 40.54 100.669 40.0859C101.067 39.6319 101.537 39.2839 102.081 39.0419C102.625 38.8 103.223 38.679 103.876 38.679C104.413 38.679 104.913 38.7602 105.377 38.9226C105.844 39.0817 106.26 39.3087 106.625 39.6037C106.993 39.8954 107.299 40.245 107.545 40.6527C107.79 41.0571 107.959 41.5062 108.052 42H106.779ZM110.064 49V41.3636H111.198V42.517H111.277C111.416 42.1392 111.668 41.8326 112.033 41.5973C112.397 41.362 112.808 41.2443 113.266 41.2443C113.352 41.2443 113.46 41.246 113.589 41.2493C113.718 41.2526 113.816 41.2576 113.882 41.2642V42.4574C113.843 42.4474 113.751 42.4325 113.609 42.4126C113.47 42.3894 113.322 42.3778 113.166 42.3778C112.795 42.3778 112.464 42.4557 112.172 42.6115C111.884 42.764 111.655 42.9761 111.486 43.2479C111.32 43.5163 111.237 43.8229 111.237 44.1676V49H110.064ZM118.143 49.1591C117.454 49.1591 116.849 48.995 116.328 48.6669C115.811 48.3388 115.407 47.8797 115.115 47.2898C114.827 46.6998 114.683 46.0104 114.683 45.2216C114.683 44.4261 114.827 43.7318 115.115 43.1385C115.407 42.5452 115.811 42.0845 116.328 41.7564C116.849 41.4283 117.454 41.2642 118.143 41.2642C118.832 41.2642 119.436 41.4283 119.953 41.7564C120.473 42.0845 120.877 42.5452 121.166 43.1385C121.457 43.7318 121.603 44.4261 121.603 45.2216C121.603 46.0104 121.457 46.6998 121.166 47.2898C120.877 47.8797 120.473 48.3388 119.953 48.6669C119.436 48.995 118.832 49.1591 118.143 49.1591ZM118.143 48.1051C118.667 48.1051 119.097 47.9709 119.436 47.7024C119.774 47.4339 120.024 47.081 120.186 46.6435C120.349 46.206 120.43 45.732 120.43 45.2216C120.43 44.7112 120.349 44.2356 120.186 43.7947C120.024 43.3539 119.774 42.9976 119.436 42.7259C119.097 42.4541 118.667 42.3182 118.143 42.3182C117.619 42.3182 117.188 42.4541 116.85 42.7259C116.512 42.9976 116.262 43.3539 116.1 43.7947C115.937 44.2356 115.856 44.7112 115.856 45.2216C115.856 45.732 115.937 46.206 116.1 46.6435C116.262 47.081 116.512 47.4339 116.85 47.7024C117.188 47.9709 117.619 48.1051 118.143 48.1051ZM124.865 49L122.538 41.3636H123.771L125.421 47.2102H125.501L127.132 41.3636H128.384L129.995 47.1903H130.075L131.725 41.3636H132.958L130.632 49H129.478L127.808 43.1335H127.688L126.018 49H124.865ZM137.83 41.3636V42.358H133.873V41.3636H137.83ZM135.026 39.5341H136.2V46.8125C136.2 47.1439 136.248 47.3925 136.344 47.5582C136.443 47.7206 136.569 47.83 136.722 47.8864C136.878 47.9394 137.042 47.9659 137.214 47.9659C137.343 47.9659 137.449 47.9593 137.532 47.946C137.615 47.9295 137.681 47.9162 137.731 47.9062L137.97 48.9602C137.89 48.9901 137.779 49.0199 137.637 49.0497C137.494 49.0829 137.313 49.0994 137.095 49.0994C136.763 49.0994 136.438 49.0282 136.12 48.8857C135.805 48.7431 135.544 48.526 135.335 48.2344C135.129 47.9427 135.026 47.5748 135.026 47.1307V39.5341ZM140.933 44.4062V49H139.759V38.8182H140.933V42.5568H141.032C141.211 42.1624 141.48 41.8492 141.838 41.6172C142.199 41.3819 142.679 41.2642 143.279 41.2642C143.8 41.2642 144.255 41.3686 144.646 41.5774C145.038 41.7829 145.341 42.0994 145.556 42.527C145.775 42.9512 145.884 43.4915 145.884 44.1477V49H144.711V44.2273C144.711 43.6207 144.554 43.1518 144.239 42.8203C143.927 42.4856 143.495 42.3182 142.941 42.3182C142.557 42.3182 142.212 42.3994 141.907 42.5618C141.606 42.7242 141.367 42.9612 141.191 43.2727C141.019 43.5843 140.933 43.9621 140.933 44.4062Z" fill="#141414"/>
<circle cx="97" cy="158" r="6" fill="#FF7777"/>
<path d="M110.59 156.42H109.374V155.716H111.342V161.5H110.59V156.42ZM116.28 161.492L112.376 161.5V160.9L114.24 159.292C115.176 158.484 115.44 158.092 115.44 157.476C115.44 156.748 115.024 156.316 114.328 156.316C113.616 156.316 113.152 156.836 113.136 157.66H112.352C112.376 156.42 113.16 155.612 114.336 155.612C115.496 155.612 116.24 156.316 116.24 157.428C116.24 158.252 115.832 158.836 114.808 159.724L113.608 160.764H116.28V161.492ZM118.689 158.508H118.113V157.988L119.753 156.412H117.153V155.716H120.745V156.348L119.161 157.86C120.145 157.98 120.889 158.644 120.889 159.684C120.889 160.852 120.009 161.596 118.833 161.596C117.697 161.596 116.881 160.9 116.881 159.7H117.657C117.657 160.452 118.121 160.892 118.849 160.892C119.601 160.892 120.089 160.412 120.089 159.668C120.089 158.972 119.609 158.508 118.689 158.508ZM125.884 160.332H125.196V161.5H124.444V160.332H121.452V159.636L124.18 155.716H125.196V159.636H125.884V160.332ZM122.3 159.636H124.444V156.548L122.3 159.636ZM128.516 161.596C127.332 161.596 126.564 160.844 126.564 159.692H127.34C127.34 160.436 127.796 160.892 128.532 160.892C129.316 160.892 129.82 160.372 129.82 159.588C129.82 158.844 129.348 158.292 128.54 158.292C128.052 158.292 127.604 158.524 127.34 158.852L126.676 158.684L127.38 155.716H130.276V156.436H127.948L127.564 157.972C127.868 157.74 128.252 157.62 128.684 157.62C129.86 157.62 130.62 158.444 130.62 159.556C130.62 160.756 129.764 161.596 128.516 161.596Z" fill="#141414"/>
<circle cx="150" cy="158" r="6" fill="#6389EB"/>
<path d="M166.627 161.492L162.723 161.5V160.9L164.587 159.292C165.523 158.484 165.787 158.092 165.787 157.476C165.787 156.748 165.371 156.316 164.675 156.316C163.963 156.316 163.499 156.836 163.483 157.66H162.699C162.723 156.42 163.507 155.612 164.683 155.612C165.843 155.612 166.587 156.316 166.587 157.428C166.587 158.252 166.179 158.836 165.155 159.724L163.955 160.764H166.627V161.492ZM168.131 161.596C167.819 161.596 167.555 161.34 167.555 161.036C167.555 160.724 167.819 160.468 168.131 160.468C168.435 160.468 168.699 160.724 168.699 161.036C168.699 161.34 168.435 161.596 168.131 161.596ZM173.809 160.332H173.121V161.5H172.369V160.332H169.377V159.636L172.105 155.716H173.121V159.636H173.809V160.332ZM170.225 159.636H172.369V156.548L170.225 159.636ZM177.447 157.084C177.447 157.94 176.839 158.556 175.983 158.556C175.135 158.556 174.527 157.94 174.527 157.084C174.527 156.22 175.135 155.604 175.983 155.604C176.839 155.604 177.447 156.22 177.447 157.084ZM180.495 155.724L176.103 161.5H175.335L179.727 155.724H180.495ZM176.831 157.084C176.831 156.564 176.487 156.204 175.983 156.204C175.487 156.204 175.143 156.564 175.143 157.084C175.143 157.596 175.487 157.956 175.983 157.956C176.479 157.956 176.831 157.596 176.831 157.084ZM181.319 160.132C181.319 160.988 180.703 161.604 179.855 161.604C179.007 161.604 178.391 160.988 178.391 160.132C178.391 159.268 179.007 158.66 179.855 158.66C180.703 158.66 181.319 159.268 181.319 160.132ZM180.695 160.132C180.695 159.612 180.359 159.252 179.855 159.252C179.359 159.252 179.015 159.612 179.015 160.132C179.015 160.644 179.359 161.004 179.855 161.004C180.351 161.004 180.695 160.644 180.695 160.132Z" fill="#141414"/>
<path d="M187.673 160.5C187.673 160.681 187.819 160.827 188 160.827C188.181 160.827 188.327 160.681 188.327 160.5H187.673ZM188.231 155.269C188.104 155.141 187.896 155.141 187.769 155.269L185.685 157.352C185.558 157.479 185.558 157.687 185.685 157.815C185.813 157.942 186.021 157.942 186.148 157.815L188 155.963L189.852 157.815C189.979 157.942 190.187 157.942 190.315 157.815C190.442 157.687 190.442 157.479 190.315 157.352L188.231 155.269ZM188.327 160.5V155.5H187.673V160.5H188.327Z" fill="#FF8933"/>
<path d="M68 121.597C74.6667 126.614 90.2 124.462 99 100.38C110 70.2779 123.471 113.571 129.5 121.597C136.005 130.257 148.5 132.756 157 87.3355C164.848 45.3978 179.642 108.097 182 115.431C183.5 120.097 189.5 143.597 212 89.3428" stroke="#6389EB" stroke-width="2" stroke-linecap="round"/>
</g>
<defs>
<filter id="filter0_d_283_933" x="0" y="0" width="279" height="218" filterUnits="userSpaceOnUse" color-interpolation-filters="sRGB">
<feFlood flood-opacity="0" result="BackgroundImageFix"/>
<feColorMatrix in="SourceAlpha" type="matrix" values="0 0 0 0 0 0 0 0 0 0 0 0 0 0 0 0 0 0 127 0" result="hardAlpha"/>
<feMorphology radius="12" operator="erode" in="SourceAlpha" result="effect1_dropShadow_283_933"/>
<feOffset dy="9"/>
<feGaussianBlur stdDeviation="22.5"/>
<feComposite in2="hardAlpha" operator="out"/>
<feColorMatrix type="matrix" values="0 0 0 0 0 0 0 0 0 0 0 0 0 0 0 0 0 0 0.1 0"/>
<feBlend mode="normal" in2="BackgroundImageFix" result="effect1_dropShadow_283_933"/>
<feBlend mode="normal" in="SourceGraphic" in2="effect1_dropShadow_283_933" result="shape"/>
</filter>
</defs>
</svg>
