<svg width="1140" height="200" viewBox="0 0 1140 200" fill="none" xmlns="http://www.w3.org/2000/svg">
<g opacity="0.13">
<path d="M514.945 909.759C514.945 909.759 216.999 729.533 280.992 523.285C345.43 317.835 442.697 175.218 765.553 240.027C1096.97 306.558 1243.95 489.785 1369.37 436.173C1484.63 386.907 1517.35 481.99 1516.55 489.973" stroke="white" stroke-miterlimit="10"/>
<path d="M475.112 918.942C475.112 918.942 147.958 723.015 221.671 499.069C295.747 275.837 405.138 122.458 758.854 198.976C1120.27 277.146 1269.84 469.548 1402.07 405.215C1526.31 344.681 1561.2 449.61 1560.47 456.94" stroke="white" stroke-miterlimit="10"/>
<path d="M435.116 928.127C435.116 928.127 78.7731 716.483 162.151 474.85C245.863 233.856 367.402 69.6622 751.959 157.905C1143.39 247.716 1295.29 449.284 1434.61 374.24C1567.76 302.504 1604.98 417.241 1604.31 423.899" stroke="white" stroke-miterlimit="10"/>
<path d="M395.299 937.329C395.299 937.329 9.64209 709.956 102.706 450.602C196.055 191.845 329.758 16.8379 745.137 116.823C1166.61 218.258 1320.6 429.096 1467.18 343.268C1609.01 260.215 1648.74 384.869 1648.13 390.856" stroke="white" stroke-miterlimit="10"/>
<path d="M355.286 946.513C355.286 946.513 -59.4705 703.432 43.2606 426.373C146.278 149.893 292.134 -35.9835 738.315 75.7415C1189.84 188.803 1345.76 408.949 1499.76 312.298C1650.14 217.915 1692.44 352.565 1691.91 357.808" stroke="white" stroke-miterlimit="10"/>
<path d="M315.381 955.706C315.381 955.706 -128.582 696.907 -16.1666 402.145C96.4386 107.842 254.529 -88.8215 731.512 34.6614C1213.11 159.351 1370.82 388.847 1532.37 281.33C1691.2 175.606 1736.31 320.114 1735.84 324.776" stroke="white" stroke-miterlimit="10"/>
<path d="M275.456 964.898C275.456 964.898 -197.694 690.364 -75.6136 377.916C46.6458 65.852 216.905 -141.661 724.67 -6.4034C1236.36 129.879 1395.74 368.784 1564.94 250.303C1732.14 133.285 1780.07 287.706 1779.67 291.698" stroke="white" stroke-miterlimit="10"/>
<path d="M235.549 974.092C235.549 974.092 -266.807 683.84 -135.06 353.686C-3.16219 23.8411 179.318 -194.497 717.848 -47.4854C1259.61 100.426 1420.6 348.771 1597.58 219.376C1773.06 91.0359 1823.89 255.433 1823.57 258.699" stroke="white" stroke-miterlimit="10"/>
<path d="M195.625 983.284C195.625 983.284 -335.92 677.314 -194.499 329.383C-53.0773 -18.5474 141.722 -247.426 711.034 -88.6401C1282.9 70.8662 1445.4 328.715 1630.11 188.326C1813.85 48.6994 1867.63 222.912 1867.37 225.507" stroke="white" stroke-miterlimit="10"/>
<path d="M155.72 992.479C155.72 992.479 -405.032 670.791 -253.949 305.209C-102.867 -60.3724 104.131 -300.225 704.205 -129.649C1306.17 41.4512 1470.12 308.816 1662.7 157.412C1854.63 6.49083 1911.39 190.596 1911.19 192.592" stroke="white" stroke-miterlimit="10"/>
<path d="M115.796 1001.67C115.796 1001.67 -474.152 664.338 -313.397 280.998C-152.643 -102.343 66.7914 -353.897 697.378 -170.676C1329.68 11.1813 1494.82 288.933 1695.22 126.453C1895.33 -35.7258 1955.13 158.223 1954.99 159.565" stroke="white" stroke-miterlimit="10"/>
<path d="M75.873 1010.84C75.873 1010.84 -543.252 657.686 -372.844 256.767C-202.435 -144.151 29.1096 -406.341 690.558 -211.777C1352.8 -17.8832 1519.46 269.043 1727.87 95.4887C1936.27 -78.0659 1998.97 125.86 1998.91 126.531" stroke="white" stroke-miterlimit="10"/>
<path d="M35.9666 1020.04C35.9666 1020.04 -612.376 651.27 -432.29 232.538C-252.204 -186.194 -8.59012 -458.784 683.735 -252.858C1376.06 -46.9318 1544.09 249.189 1760.44 64.518C1976.8 -120.154 2042.75 93.4908 2042.75 93.4908" stroke="white" stroke-miterlimit="10"/>
</g>
</svg>
