<svg xmlns="http://www.w3.org/2000/svg" xmlns:xlink="http://www.w3.org/1999/xlink" viewBox="0 0 105 28"> <defs> <linearGradient id="a" x1="14.28" y1="14" x2="31.37" y2="14" gradientUnits="userSpaceOnUse"> <stop offset="0" stop-color="#8089fe"></stop><stop offset="1" stop-color="#5b92fe"></stop> </linearGradient> <linearGradient id="b" x1="4.61" y1="14" x2="21.7" y2="14" gradientUnits="userSpaceOnUse"> <stop offset="0" stop-color="#ff9a7c"></stop><stop offset="1" stop-color="#ff71a3"></stop> </linearGradient> <linearGradient id="c" x1="19.76" y1="7.29" x2="19.9" y2="17.11" gradientUnits="userSpaceOnUse"> <stop offset="0" stop-color="#c346d4"></stop> <stop offset="1" stop-color="#ff9a7c" stop-opacity="0"></stop> </linearGradient> <linearGradient id="d" x1="4.61" y1="5.44" x2="17.99" y2="5.44" gradientUnits="userSpaceOnUse"> <stop offset="0" stop-color="#ff9a7c" stop-opacity="0"></stop> <stop offset="1" stop-color="#c346d4"></stop> </linearGradient> <linearGradient id="e" x1="17.99" y1="22.56" x2="31.37" y2="22.56" gradientUnits="userSpaceOnUse"> <stop offset="0" stop-color="#b07efa"></stop> <stop offset="1" stop-color="#8089fe" stop-opacity="0"></stop> </linearGradient> <linearGradient id="f" x1="16.18" y1="20.62" x2="16.11" y2="11.55" xlink:href="#e"></linearGradient> </defs> <path d="M35.57,5.15h3.14V19h6.16v3h-9.3Z" transform="translate(-4.61 -1.16)"></path> <path d="M44.82,15.25a6.67,6.67,0,0,1,6.68-7,5.63,5.63,0,0,1,4.34,1.89V8.5H59V22H55.84V20.23a5.52,5.52,0,0,1-4.38,2A6.74,6.74,0,0,1,44.82,15.25Zm11.18,0a4,4,0,0,0-4-4.15,4.06,4.06,0,0,0-4.09,4.15A4.09,4.09,0,0,0,52,19.4,4,4,0,0,0,56,15.21Z" transform="translate(-4.61 -1.16)"></path> <path d="M59.73,4.92h3.12v5.19a5,5,0,0,1,4-1.89c3.39,0,5.35,2.1,5.35,5.77v8H69.05V14.33c0-2.12-1-3.41-3-3.41-1.76,0-3.14,1.31-3.14,3.66V22H59.73Z" transform="translate(-4.61 -1.16)"></path> <path d="M72.76,19.15l7.84-7.89H72.92V8.5H84.66v2.83l-7.84,7.89h8V22h-12Z" transform="translate(-4.61 -1.16)"></path> <path d="M84.43,15.25a6.67,6.67,0,0,1,6.68-7,5.63,5.63,0,0,1,4.34,1.89V8.5h3.11V22H95.45V20.23a5.52,5.52,0,0,1-4.38,2A6.74,6.74,0,0,1,84.43,15.25Zm11.18,0a4.06,4.06,0,1,0-8.12,0,4.06,4.06,0,1,0,8.12,0Z" transform="translate(-4.61 -1.16)"></path> <path d="M18,9.71c0-.14,0-.27,0-.4,0,.13,0,.26,0,.4v8.58c0,.14,0,.27,0,.4,0-.13,0-.26,0-.4Z" transform="translate(-4.61 -1.16)" style="fill:none"></path> <path d="M14.28,9.71a8.42,8.42,0,0,1,1.16-4.28,4.76,4.76,0,0,0-2.28-.57A4.85,4.85,0,0,0,8.31,9.71v8.58a4.85,4.85,0,0,0,4.85,4.85,4.76,4.76,0,0,0,2.28-.57,8.42,8.42,0,0,1-1.16-4.28Z" transform="translate(-4.61 -1.16)" style="fill:none"></path> <path d="M21.7,18.29a8.51,8.51,0,0,1-1.15,4.28,4.76,4.76,0,0,0,2.28.57h0a4.85,4.85,0,0,0,4.85-4.85V9.71a4.85,4.85,0,0,0-4.85-4.85,4.76,4.76,0,0,0-2.28.57A8.51,8.51,0,0,1,21.7,9.71Z" transform="translate(-4.61 -1.16)" style="fill:none"></path> <path d="M22.83,1.16a8.58,8.58,0,0,0-8.55,8.55v8.58a8.42,8.42,0,0,0,1.16,4.28A4.85,4.85,0,0,0,18,18.69c0-.13,0-.26,0-.4V9.71c0-.14,0-.27,0-.4a4.84,4.84,0,0,1,2.56-3.88,4.76,4.76,0,0,1,2.28-.57,4.85,4.85,0,0,1,4.85,4.85v8.58a4.85,4.85,0,0,1-4.85,4.85h0a4.76,4.76,0,0,1-2.28-.57A8.45,8.45,0,0,1,18,25.33a8.53,8.53,0,0,0,13.38-7V9.71A8.56,8.56,0,0,0,22.83,1.16Z" transform="translate(-4.61 -1.16)" style="fill:url(#a)"></path> <path d="M20.55,5.43A4.84,4.84,0,0,0,18,9.31c0,.13,0,.26,0,.4v8.58c0,.14,0,.27,0,.4a4.85,4.85,0,0,1-2.55,3.88,4.76,4.76,0,0,1-2.28.57,4.85,4.85,0,0,1-4.85-4.85V9.71a4.85,4.85,0,0,1,4.85-4.85,4.76,4.76,0,0,1,2.28.57A8.42,8.42,0,0,1,18,2.67a8.46,8.46,0,0,0-4.83-1.51A8.57,8.57,0,0,0,4.61,9.71v8.58a8.57,8.57,0,0,0,8.55,8.55,8.55,8.55,0,0,0,8.54-8.55V9.71A8.51,8.51,0,0,0,20.55,5.43Z" transform="translate(-4.61 -1.16)" style="fill:url(#b)"></path> <path d="M21.7,18.29V9.71a8.51,8.51,0,0,0-1.15-4.28A4.84,4.84,0,0,0,18,9.31c0,.13,0,.26,0,.4v8.58Z" transform="translate(-4.61 -1.16)" style="fill:url(#c)"></path> <path d="M8.31,9.71a4.85,4.85,0,0,1,4.85-4.85,4.76,4.76,0,0,1,2.28.57A8.42,8.42,0,0,1,18,2.67a8.46,8.46,0,0,0-4.83-1.51A8.57,8.57,0,0,0,4.61,9.71Z" transform="translate(-4.61 -1.16)" style="fill:url(#d)"></path> <path d="M22.83,23.14a4.76,4.76,0,0,1-2.28-.57A8.45,8.45,0,0,1,18,25.33a8.53,8.53,0,0,0,13.38-7H27.68a4.85,4.85,0,0,1-4.85,4.85h0" transform="translate(-4.61 -1.16)" style="fill:url(#e)"></path> <path d="M18,9.71v8.58c0,.14,0,.27,0,.4a4.85,4.85,0,0,1-2.55,3.88,8.42,8.42,0,0,1-1.16-4.28V9.71Z" transform="translate(-4.61 -1.16)" style="fill:url(#f)"></path> </svg>